<svg width="21" height="42" viewBox="0 0 21 42" fill="" xmlns="http://www.w3.org/2000/svg">
<path d="M1.2352 24.3898H5.38217V40.6858C5.38217 41.4103 5.93389 41.9983 6.61736 41.9983L13.2166 42C13.9001 42 14.4518 41.4103 14.4518 40.6875V24.3915H18.383C19.0056 24.3915 19.5309 23.898 19.6083 23.2418L20.4285 16.2418C20.5207 15.4613 19.946 14.7665 19.2032 14.7665H14.4518C14.6379 10.4423 13.7354 9.163 16.382 9.163C18.1739 8.9355 21 9.89975 21 7.8505V1.59075C21 0.9345 20.5438 0.37975 19.9328 0.2905C19.4157 0.21525 17.3718 0 14.8372 0C3.29221 0 5.66873 13.601 5.38381 14.7648H1.2352C0.553368 14.7648 0 15.3528 0 16.0773V23.0773C0 23.8018 0.553368 24.3898 1.2352 24.3898ZM2.47039 17.3915H6.61736C7.29919 17.3915 7.85256 16.8035 7.85256 16.079V10.5648C7.85256 5.5195 10.3971 2.62675 14.8355 2.62675C16.2815 2.62675 17.6123 2.702 18.528 2.779V6.53975C17.8659 6.8985 11.9798 4.99275 11.9798 11.2595V16.0808C11.9798 16.8053 12.5331 17.3933 13.215 17.3933H17.8033L17.2895 21.7683H13.215C12.5331 21.7683 11.9798 22.3563 11.9798 23.0808V39.375H7.85421V23.079C7.85421 22.3545 7.30084 21.7665 6.61901 21.7665H2.47039V17.3915Z" fill=""/>
</svg>
