<svg width="38" height="38" viewBox="0 0 38 38" fill="" xmlns="http://www.w3.org/2000/svg">
<path d="M19.3747 38C19.2489 38 19.1231 38 18.9964 37.9994C16.0177 38.0067 13.2654 37.931 10.5888 37.7681C8.1348 37.6188 5.89482 36.7707 4.1106 35.3159C2.38901 33.9122 1.21335 32.0141 0.616387 29.675C0.096836 27.6386 0.0692928 25.6396 0.0429094 23.7062C0.0237741 22.3189 0.00405899 20.6751 0 19.0034C0.00405899 17.3248 0.0237741 15.681 0.0429094 14.2937C0.0692928 12.3605 0.096836 10.3616 0.616387 8.32488C1.21335 5.98583 2.38901 4.08773 4.1106 2.68395C5.89482 1.22914 8.1348 0.381135 10.589 0.231828C13.2657 0.0691838 16.0185 -0.00677472 19.0036 0.000473229C21.9832 -0.00590496 24.7346 0.0691838 27.4112 0.231828C29.8652 0.381135 32.1052 1.22914 33.8894 2.68395C35.6113 4.08773 36.7867 5.98583 37.3836 8.32488C37.9032 10.3613 37.9307 12.3605 37.9571 14.2937C37.9762 15.681 37.9962 17.3248 38 18.9965V19.0034C37.9962 20.6751 37.9762 22.3189 37.9571 23.7062C37.9307 25.6394 37.9035 27.6383 37.3836 29.675C36.7867 32.0141 35.6113 33.9122 33.8894 35.3159C32.1052 36.7707 29.8652 37.6188 27.4112 37.7681C24.848 37.924 22.2149 38 19.3747 38ZM18.9964 35.0307C21.9267 35.0376 24.6172 34.9637 27.2309 34.8048C29.0865 34.692 30.6953 34.0899 32.0133 33.0152C33.2316 32.0216 34.0706 30.6509 34.5069 28.9409C34.9395 27.2458 34.9645 25.4257 34.9885 23.6656C35.0074 22.2876 35.0271 20.6554 35.0311 18.9999C35.0271 17.3442 35.0074 15.7123 34.9885 14.3343C34.9645 12.5742 34.9395 10.7541 34.5069 9.05867C34.0706 7.34873 33.2316 5.978 32.0133 4.98445C30.6953 3.91002 29.0865 3.30786 27.2309 3.19508C24.6172 3.03591 21.9267 2.96256 19.0033 2.96894C16.0736 2.96198 13.3828 3.03591 10.7691 3.19508C8.91355 3.30786 7.30474 3.91002 5.98672 4.98445C4.76845 5.978 3.92939 7.34873 3.49305 9.05867C3.06048 10.7541 3.03555 12.5739 3.01148 14.3343C2.99264 15.7134 2.97292 17.3465 2.96886 19.0034C2.97292 20.6531 2.99264 22.2865 3.01148 23.6656C3.03555 25.4257 3.06048 27.2458 3.49305 28.9409C3.92939 30.6509 4.76845 32.0216 5.98672 33.0152C7.30474 34.0896 8.91355 34.6917 10.7691 34.8045C13.3828 34.9637 16.0742 35.0379 18.9964 35.0307ZM18.9256 28.2773C13.8101 28.2773 9.64794 24.1155 9.64794 18.9999C9.64794 13.8843 13.8101 9.72258 18.9256 9.72258C24.0414 9.72258 28.2033 13.8843 28.2033 18.9999C28.2033 24.1155 24.0414 28.2773 18.9256 28.2773ZM18.9256 12.6913C15.4471 12.6913 12.6168 15.5215 12.6168 18.9999C12.6168 22.4784 15.4471 25.3086 18.9256 25.3086C22.4045 25.3086 25.2345 22.4784 25.2345 18.9999C25.2345 15.5215 22.4045 12.6913 18.9256 12.6913ZM29.2424 6.75382C28.0128 6.75382 27.0158 7.75056 27.0158 8.98039C27.0158 10.2102 28.0128 11.207 29.2424 11.207C30.4723 11.207 31.4691 10.2102 31.4691 8.98039C31.4691 7.75056 30.4723 6.75382 29.2424 6.75382Z" fill=""/>
</svg>
