<svg width="20" height="14" viewBox="0 0 20 14" fill="" xmlns="http://www.w3.org/2000/svg">
<path d="M19.8238 1.00026L13.7582 7L19.8238 12.9997C19.9335 12.7716 20 12.5193 20 12.25V1.75C20 1.48062 19.9335 1.22842 19.8238 1.00026Z" fill=""/>
<path d="M18.2422 0H1.75781C1.48723 0 1.23391 0.0662279 1.00473 0.175389L8.75719 7.85451C9.44266 8.53693 10.5573 8.53693 11.2428 7.85451L18.9953 0.175389C18.7661 0.0662279 18.5128 0 18.2422 0Z" fill=""/>
<path d="M0.176172 1.00026C0.0665234 1.22842 0 1.48062 0 1.75V12.25C0 12.5194 0.0665234 12.7716 0.176172 12.9997L6.24176 7L0.176172 1.00026Z" fill=""/>
<path d="M12.9297 7.82487L12.0714 8.67938C10.9292 9.81645 9.07074 9.81645 7.92859 8.67938L7.07031 7.82487L1.00473 13.8246C1.23391 13.9338 1.48723 14 1.75781 14H18.2422C18.5128 14 18.7661 13.9338 18.9953 13.8246L12.9297 7.82487Z" fill=""/>
</svg>
