<svg width="34" height="23" viewBox="0 0 34 23" fill="" xmlns="http://www.w3.org/2000/svg">
<path d="M31.9907 0.309082H1.91679C0.971548 0.309082 0.198242 1.08239 0.198242 2.02757V20.9312C0.198242 21.8764 0.971548 22.6498 1.91679 22.6498H31.9908C32.9359 22.6498 33.7093 21.8765 33.7093 20.9312V2.02757C33.7092 1.08239 32.9359 0.309082 31.9907 0.309082ZM31.3458 1.59788L17.9423 11.6513C17.7013 11.8347 17.3314 11.9494 16.9537 11.9477C16.576 11.9494 16.2062 11.8347 15.9651 11.6513L2.56162 1.59788H31.3458ZM24.1861 12.3147L31.4898 21.3369C31.4971 21.3459 31.5061 21.3528 31.5139 21.361H2.39361C2.40133 21.3524 2.41036 21.3459 2.41769 21.3369L9.72139 12.3147C9.94516 12.038 9.90275 11.6324 9.62557 11.4081C9.34891 11.1843 8.94331 11.2267 8.71946 11.5035L1.48711 20.4376V2.40345L15.1922 12.6823C15.7074 13.066 16.3341 13.2348 16.9536 13.2365C17.5723 13.2352 18.1995 13.0664 18.715 12.6823L32.4201 2.40345V20.4375L25.188 11.5035C24.9641 11.2268 24.5581 11.1843 24.2819 11.4081C24.0047 11.6319 23.9622 12.038 24.1861 12.3147Z" fill=""/>
</svg>
