<svg width="208" height="208" viewBox="0 0 208 208" fill="" xmlns="http://www.w3.org/2000/svg">
<path d="M104 208C88.1311 208 72.6234 205.887 59.1518 201.892C44.6252 197.583 32.7538 191.112 24.8202 183.179C16.8873 175.245 10.4162 163.374 6.10713 148.847C2.11168 135.377 0 119.868 0 104C0 88.1315 2.11168 72.6238 6.10754 59.1522C10.4162 44.6255 16.8873 32.7541 24.8206 24.8205C32.7538 16.8877 44.6256 10.4166 59.1522 6.1075C72.6234 2.11205 88.1311 0.000366211 104 0.000366211C119.868 0.000366211 135.376 2.11205 148.847 6.1079C163.374 10.4166 175.245 16.8877 183.179 24.8209C184.369 26.0112 184.369 27.9401 183.179 29.13C181.988 30.3199 180.059 30.3191 178.87 29.13C164.66 14.9211 135.972 6.09409 104 6.09409C72.0274 6.09409 43.339 14.9211 29.1296 29.13C14.9203 43.3389 6.09373 72.0278 6.09373 104C6.09373 135.972 14.9207 164.661 29.1296 178.87C43.339 193.079 72.0274 201.906 104 201.906C135.972 201.906 164.66 193.079 178.87 178.87C191.622 166.117 200.143 141.551 201.662 113.155C203.164 85.068 197.745 57.7132 187.166 39.9809C186.303 38.5355 186.776 36.6655 188.221 35.8034C189.665 34.941 191.536 35.4134 192.398 36.8589C203.574 55.5894 209.311 84.2331 207.747 113.48C206.126 143.782 197.171 169.186 183.179 183.179C175.245 191.111 163.374 197.583 148.847 201.892C135.376 205.887 119.868 208 104 208ZM80.3108 155.245C78.6042 155.245 76.8923 154.814 75.3055 153.948C71.9072 152.092 69.8784 148.673 69.8784 144.801V62.8376C69.8784 58.9657 71.9072 55.5467 75.3055 53.691C78.7033 51.8356 82.6772 51.9766 85.935 54.0716L113.822 71.9994C115.238 72.909 115.648 74.7944 114.738 76.2097C113.828 77.6251 111.942 78.0342 110.527 77.125L82.6399 59.1973C81.2875 58.3279 79.6373 58.2694 78.226 59.0392C76.8147 59.8095 75.9721 61.2297 75.9721 62.8376V144.801C75.9721 146.409 76.8147 147.829 78.226 148.6C79.6377 149.37 81.2875 149.311 82.6399 148.441L146.39 107.46C147.653 106.647 148.378 105.321 148.378 103.82C148.378 102.318 147.654 100.991 146.39 100.179L122.986 85.1334C121.57 84.2238 121.16 82.3384 122.07 80.923C122.98 79.5072 124.865 79.0973 126.281 80.0077L149.685 95.0536C152.682 96.98 154.471 100.257 154.471 103.82C154.471 107.382 152.682 110.659 149.685 112.586L85.935 153.567C84.1991 154.683 82.2584 155.245 80.3108 155.245Z" fill=""/>
</svg>
