<svg width="124" height="124" viewBox="0 0 124 124" fill="" xmlns="http://www.w3.org/2000/svg">
<path d="M61.783 15.7567C63.1347 15.7567 64.2306 14.6647 64.2306 13.3177V2.43908C64.2306 1.09203 63.1347 0 61.783 0C60.4312 0 59.3354 1.09203 59.3354 2.43908V13.3177C59.3356 14.6647 60.4314 15.7567 61.783 15.7567Z" fill=""/>
<path d="M121.612 83.7934L117.288 79.4967C115.75 77.9659 113.7 77.1226 111.515 77.1226C110.119 77.1226 108.778 77.4689 107.59 78.1177L99.4417 70.0078L99.8386 69.6128C103.144 66.3123 103.143 60.949 99.8383 57.6596C98.6574 56.4807 97.1839 55.6945 95.5776 55.3637C95.7988 54.603 95.9152 53.8062 95.9152 52.9907C95.9152 50.7251 95.032 48.6006 93.4333 47.014C92.2522 45.835 90.7789 45.0489 89.1727 44.7181C89.3938 43.9574 89.5102 43.1608 89.5102 42.3451C89.5102 40.0792 88.6271 37.955 87.0257 36.366C85.8163 35.1623 84.3297 34.4004 82.7687 34.0761C83.6037 31.2069 82.8902 27.9788 80.6251 25.7177C78.7396 23.8468 76.1812 23.0427 73.7156 23.3033L57.5695 20.2578C55.107 19.7923 52.0319 19.4845 50.0907 21.2488C49.9683 21.3603 49.8433 21.4884 49.7204 21.631C46.7106 20.5378 43.2002 21.1888 40.79 23.5879C39.1911 25.1793 38.3103 27.3028 38.3103 29.5673C38.3103 30.383 38.4262 31.1795 38.6471 31.9405C37.0426 32.2711 35.571 33.0562 34.394 34.2313C32.7919 35.8213 31.9085 37.9424 31.9068 40.2042C31.906 41.0218 32.0225 41.821 32.2446 42.5839C30.6393 42.9138 29.1668 43.6975 27.9861 44.8726C26.384 46.4674 25.5018 48.5921 25.5018 50.8554C25.5018 52.5889 26.0212 54.2404 26.9836 55.6354C25.7684 56.0459 24.6553 56.7291 23.7233 57.657C20.4155 60.949 20.4143 66.3125 23.7254 69.6179L24.1209 70.0102L15.9719 78.116C12.9434 76.6951 9.21205 77.2275 6.7129 79.7147L2.38637 84.014C0.847467 85.5456 0.000243036 87.5887 0 89.7667C0 91.945 0.847467 93.9883 2.38637 95.5201L7.78591 100.894C8.74226 101.846 10.2921 101.845 11.2472 100.892C12.2026 99.9394 12.2016 98.3949 11.2453 97.4431L5.84575 92.069C5.23281 91.4589 4.89524 90.6413 4.89524 89.767C4.89524 88.8929 5.23281 88.0755 5.84429 87.4669L10.1711 83.1674C11.2521 82.0913 12.9067 81.931 14.1632 82.6796C14.2516 82.8121 14.354 82.938 14.4711 83.055C14.6808 83.2645 14.9202 83.425 15.1745 83.5425L39.9868 108.232C40.1046 108.488 40.2665 108.729 40.4777 108.94C40.6833 109.145 40.9178 109.303 41.1667 109.42C41.6914 110.011 41.9813 110.766 41.9813 111.572C41.9813 112.446 41.6438 113.264 41.0308 113.874L36.7084 118.176C35.4313 119.443 33.3538 119.443 32.0805 118.18L26.681 112.799C25.7251 111.846 24.1755 111.846 23.2197 112.799C22.2638 113.751 22.2638 115.295 23.2197 116.248L28.6231 121.633C30.2135 123.211 32.3022 124 34.3918 124C36.4819 124 38.573 123.21 40.1654 121.63L44.4905 117.325C46.0294 115.793 46.8768 113.75 46.8768 111.572C46.8768 110.017 46.443 108.533 45.6364 107.252L54.8076 98.1244C54.8173 98.1145 54.827 98.1045 54.837 98.0946C55.8872 97.0128 58.8116 97.2152 61.6398 97.4109C63.6493 97.5502 65.8896 97.7049 68.0783 97.4535L78.1216 107.45C77.471 108.632 77.1237 109.966 77.1237 111.356C77.1237 113.532 77.9711 115.574 79.51 117.106L83.8354 121.411C85.3733 122.942 87.4233 123.785 89.6077 123.785C91.7919 123.785 93.8419 122.942 95.3801 121.411L121.614 95.3005C123.153 93.7689 124 91.7258 124 89.5475C124 87.3696 123.152 85.3265 121.612 83.7934ZM56.6581 25.0507L67.2756 27.0534L60.9204 33.3839C59.9374 32.9131 58.59 32.0349 57.1118 30.6259C55.0885 28.6971 53.6413 26.4702 53.5095 25.0812C53.5093 25.0805 53.5093 25.0798 53.5093 25.0791C53.5093 25.0788 53.509 25.0786 53.509 25.0783C53.4996 24.9785 53.4971 24.8989 53.4984 24.8381C53.8184 24.7606 54.6686 24.6746 56.6581 25.0507ZM44.2491 27.0393C45.4891 25.8049 47.4154 25.6625 48.8165 26.608C49.6105 29.9255 52.4504 32.9322 53.728 34.1504C54.6749 35.0533 57.7131 37.7603 60.7797 38.5043C61.1946 39.0969 61.4204 39.8034 61.4204 40.5488C61.4204 41.5091 61.0497 42.4069 60.3743 43.0792C59.7009 43.7515 58.7985 44.1216 57.8331 44.1216C56.8676 44.1216 55.9652 43.7515 55.2886 43.076L55.2883 43.0758L44.2489 32.0948C43.5759 31.4251 43.2053 30.5273 43.2053 29.5673C43.2055 28.607 43.5762 27.7092 44.2491 27.0393ZM37.8534 37.6828C38.5268 37.0107 39.4283 36.6404 40.3921 36.6404C41.3572 36.6404 42.2616 37.0114 42.9394 37.6861L51.8277 46.5258C53.2274 47.9227 53.2274 50.1959 51.8326 51.588C51.1555 52.26 50.2499 52.6301 49.2829 52.6301C48.3158 52.6301 47.4103 52.26 46.7361 51.5909L39.9928 44.8726C39.9824 44.8622 39.971 44.8525 39.9603 44.8418L37.8507 42.7406C37.1739 42.0668 36.8013 41.1674 36.802 40.2078C36.803 39.2514 37.1743 38.3565 37.8534 37.6828ZM31.4455 48.324C32.1194 47.6534 33.0228 47.2841 33.9896 47.2841C34.9484 47.2841 35.844 47.6481 36.515 48.3071L43.2787 55.044C43.9531 55.7134 44.3247 56.6102 44.3247 57.5693C44.3247 58.5281 43.9531 59.4249 43.276 60.097C42.6023 60.7674 41.6999 61.1367 40.7348 61.1367C39.7683 61.1367 38.863 60.7664 38.1883 60.097L35.7363 57.6565C35.7358 57.6558 35.7351 57.6553 35.7346 57.6548L31.4457 53.386C30.7696 52.7129 30.3973 51.8139 30.3973 50.8549C30.3973 49.8961 30.7696 48.9968 31.4455 48.324ZM27.1826 61.1081C27.8595 60.4344 28.7641 60.0633 29.7297 60.0633C30.695 60.0633 31.5993 60.4341 32.2759 61.1074L34.7313 63.5513C35.406 64.2207 35.7774 65.1176 35.7774 66.0766C35.7774 67.0357 35.4058 67.9323 34.7262 68.607C34.0528 69.2791 33.1504 69.6494 32.185 69.6494C31.2195 69.6494 30.3171 69.2793 29.6388 68.6022L29.3313 68.297C29.3272 68.2929 29.324 68.2885 29.3201 68.2847C29.3155 68.2803 29.3107 68.2764 29.306 68.2721L27.1851 66.1667C25.7854 64.7691 25.7842 62.5 27.1826 61.1081ZM77.0619 88.8285C76.1066 87.8752 74.5567 87.8745 73.6006 88.8263L71.423 90.9937C69.3538 93.0556 65.6045 92.796 61.9786 92.5454C58.0412 92.2727 53.9696 91.9912 51.3348 94.6868L42.3194 103.66L19.7746 81.2267L27.753 73.2904C29.0718 74.096 30.5934 74.5278 32.1855 74.5278C34.4601 74.5278 36.593 73.6491 38.1861 72.0587C39.7899 70.467 40.6733 68.3428 40.6733 66.0769C40.6733 66.0558 40.6719 66.035 40.6719 66.0139C40.693 66.0141 40.7142 66.0154 40.7353 66.0154C43.0067 66.0154 45.1379 65.1394 46.7332 63.5516C48.337 61.9599 49.2204 59.8354 49.2204 57.5698C49.2204 57.5487 49.219 57.5279 49.219 57.5068C49.2404 57.5068 49.2617 57.5083 49.2834 57.5083C51.5541 57.5083 53.6865 56.6332 55.2924 55.0394C56.9597 53.3753 57.7843 51.1845 57.7685 48.9983C57.7904 48.9985 57.8122 48.9997 57.8341 48.9997C60.1087 48.9995 62.2413 48.1211 63.8369 46.5282C65.4358 44.9368 66.3166 42.8133 66.3166 40.5488C66.3166 38.9651 65.8844 37.4512 65.0788 36.1398L72.0717 29.1742C72.5927 28.6571 73.2353 28.3326 73.9088 28.1987C73.9817 28.1909 74.0536 28.1793 74.1248 28.1653C75.2054 28.0168 76.3401 28.3491 77.1664 29.1691C78.5661 30.5663 78.5661 32.8395 77.1715 34.2316L75.0418 36.3451C75.0348 36.3522 75.0272 36.3585 75.0202 36.3655L72.5672 38.8058C71.6106 39.7576 71.6097 41.302 72.565 42.255C73.5207 43.2083 75.0703 43.209 76.0264 42.2572L78.1646 40.1293C78.1651 40.1289 78.1656 40.1284 78.166 40.1279L78.4893 39.807C79.8928 38.4212 82.1667 38.4241 83.5687 39.8193C84.2434 40.4887 84.615 41.3856 84.615 42.3446C84.615 43.3035 84.2434 44.2003 83.5634 44.875L81.4215 47.0138C81.4213 47.014 81.421 47.0143 81.4208 47.0147L78.9681 49.449C78.0103 50.3996 78.0071 51.944 78.961 52.8982C79.9149 53.8527 81.4645 53.8556 82.4223 52.9052L84.8862 50.4599C85.5597 49.7876 86.4621 49.4175 87.4274 49.4175C88.393 49.4175 89.2956 49.7875 89.974 50.4647C90.6486 51.1344 91.02 52.0312 91.02 52.9902C91.02 53.9491 90.6486 54.8459 89.9701 55.5192L85.6999 59.7761C84.7443 60.7289 84.7445 62.2731 85.7004 63.2253C86.1785 63.7015 86.8045 63.9393 87.4308 63.9393C88.0574 63.9393 88.6839 63.701 89.1617 63.2246L91.2545 61.1384C91.2664 61.127 91.2793 61.1171 91.2912 61.1052C91.9647 60.4329 92.8671 60.0629 93.8324 60.0629C94.798 60.0629 95.7004 60.4329 96.3763 61.1077C97.7745 62.4995 97.7732 64.7688 96.3763 66.1633L94.2485 68.2813C94.2477 68.282 94.2468 68.2827 94.246 68.2834C94.2453 68.2842 94.2446 68.2851 94.2439 68.2859L90.8666 71.6472C89.9103 72.5992 89.9093 74.1437 90.8644 75.0967C91.3425 75.5735 91.9695 75.8121 92.5963 75.8121C93.2221 75.8121 93.8482 75.5743 94.326 75.0989L95.9779 73.4546L103.895 81.3352L81.3525 103.772L73.2754 95.7328C73.8385 95.3719 74.3773 94.9476 74.8831 94.4436L77.0595 92.2775C78.0163 91.3259 78.0173 89.7815 77.0619 88.8285ZM118.154 91.8491L91.9204 117.959C91.3068 118.57 90.4853 118.907 89.6075 118.907C88.7296 118.907 87.9081 118.57 87.2942 117.959L82.9689 113.654C82.356 113.044 82.0184 112.228 82.0184 111.356C82.0184 110.484 82.356 109.668 82.9689 109.058L109.202 82.9477C109.816 82.3366 110.638 82.0002 111.516 82.0002C112.394 82.0002 113.215 82.3366 113.83 82.9491L118.154 87.2458C118.767 87.8559 119.105 88.673 119.105 89.5473C119.105 90.4219 118.767 91.2392 118.154 91.8491Z" fill=""/>
<path d="M29.282 13.7006C29.7598 14.1757 30.3854 14.4131 31.0109 14.4131C31.638 14.4131 32.2652 14.1743 32.7433 13.6969C33.6982 12.7434 33.6967 11.1993 32.7399 10.2477L23.821 1.37757C22.8644 0.426009 21.3145 0.42722 20.3596 1.38096C19.4047 2.33445 19.4062 3.87864 20.363 4.8302L29.282 13.7006Z" fill=""/>
<path d="M92.555 14.4131C93.1808 14.4131 93.8069 14.1753 94.2847 13.6998L103.197 4.82947C104.153 3.87767 104.154 2.33324 103.199 1.38023C102.244 0.42722 100.694 0.426251 99.7374 1.37829L90.8253 10.2487C89.869 11.2005 89.868 12.7449 90.8234 13.6979C91.3014 14.1748 91.9282 14.4131 92.555 14.4131Z" fill=""/>
<path d="M15.05 104.917C14.1024 105.877 14.1155 107.422 15.0797 108.366L15.0867 108.373C15.5623 108.839 16.1799 109.071 16.7972 109.071C17.4308 109.071 18.0644 108.826 18.5444 108.34C19.492 107.379 19.4752 105.832 18.5113 104.887C17.5477 103.943 15.9981 103.956 15.05 104.917Z" fill=""/>
<path d="M83.0484 85.3148C83.4207 85.3148 83.7984 85.2303 84.153 85.0523C85.3599 84.4456 85.8448 82.9789 85.2362 81.7762C84.6274 80.5735 83.1553 80.0901 81.9487 80.6968L81.935 80.7036C80.7281 81.3102 80.2501 82.7736 80.8586 83.9763C81.2883 84.8259 82.1526 85.3148 83.0484 85.3148Z" fill=""/>
</svg>
