<svg width="124" height="116" viewBox="0 0 124 116" fill="" xmlns="http://www.w3.org/2000/svg">
<path d="M121.93 41.4286C121.918 35.2503 117.379 30.0192 111.277 29.1491C109.248 16.0074 97.9981 6.28781 84.7311 6.21428C84.2041 6.21428 83.6503 6.27643 83.1109 6.3075C81.1634 2.84403 77.6762 0.527513 73.7351 0.0792456C69.7939 -0.369021 65.8775 1.1054 63.2053 4.04343C59.5377 1.41391 55.1413 9.49128e-05 50.632 0C43.6237 0.0350939 37.0578 3.43895 32.979 9.15157C28.2958 7.51339 23.1129 8.22569 19.0424 11.0669C14.9719 13.9081 12.5077 18.5336 12.4162 23.5045C6.33006 25.5549 2.88375 31.9955 4.54658 38.2116C1.57851 42.5021 -0.00808407 47.6004 3.09749e-05 52.8214C-0.00766234 60.938 3.78587 68.5877 10.2458 73.482C16.7058 78.3763 25.083 79.9477 32.8716 77.7262C35.5717 83.5473 40.9421 87.6763 47.2511 88.7817C53.56 89.8871 60.0094 87.8291 64.5197 83.2714C67.061 84.1369 69.7048 84.6641 72.3831 84.8395C72.7654 92.5866 75.7372 97.2307 88.2113 101.398C96.3104 104.104 98.472 109.597 99.0383 112.632C99.423 114.596 101.145 116.01 103.143 116H109.448C110.587 116.002 111.677 115.532 112.459 114.702C113.242 113.872 113.648 112.755 113.581 111.615C113.273 106.643 111.899 95.1324 105.912 87.8244C112.802 84.05 117.691 77.4319 119.281 69.7243C124.913 63.1522 125.57 53.6531 120.897 46.3648C121.573 44.8069 121.924 43.1273 121.93 41.4286ZM115.883 67.3463L115.836 67.396C112.895 70.6346 108.733 72.4865 104.364 72.5C101.918 72.5085 99.5072 71.9221 97.3375 70.791C96.3528 70.2817 95.4287 69.6626 94.5827 68.9454C97.3439 65.7856 97.9222 61.265 96.0458 57.509C95.7136 56.8474 95.0544 56.4138 94.3167 56.3714C93.5789 56.329 92.8746 56.6843 92.4691 57.3035C92.0636 57.9227 92.0185 58.7117 92.3507 59.3733C92.78 60.2329 93.0016 61.1816 92.9976 62.1428C93.0003 65.0275 91.0222 67.5347 88.2211 68.1969C85.4201 68.8592 82.5326 67.5023 81.2489 64.9206C80.9166 64.259 80.2575 63.8253 79.5197 63.7829C78.782 63.7405 78.0777 64.0959 77.6722 64.7151C77.2667 65.3343 77.2215 66.1233 77.5538 66.7849C80.0433 71.8171 86.0965 73.9219 91.1604 71.5161C92.4473 72.7039 93.8934 73.7058 95.4568 74.4927C101.06 77.3874 107.718 77.3696 113.306 74.445C110.071 80.9556 103.908 85.5084 96.7464 86.6789C95.6791 86.8461 94.9203 87.8091 95.0054 88.8885C95.0904 89.968 95.9906 90.7997 97.0709 90.7969C97.1816 90.7972 97.2923 90.7882 97.4015 90.77C98.953 90.5154 100.479 90.1223 101.96 89.5955C107.83 95.7787 109.156 107.124 109.448 111.865H103.101C102.51 108.702 100.001 100.968 89.5174 97.4648C78.8599 93.904 76.8139 90.6705 76.5143 84.8477H76.6259C78.9635 84.6864 81.2752 84.2583 83.516 83.5718C84.6071 83.236 85.2201 82.0772 84.8851 80.9835C84.5501 79.8898 83.394 79.2754 82.3029 79.6112C80.3493 80.2096 78.3335 80.5808 76.2952 80.7173C72.3439 81.0261 68.3744 80.4267 64.6891 78.9649C63.8733 78.6539 62.9506 78.8835 62.3745 79.5408C58.7562 83.7528 53.1673 85.7044 47.7212 84.6574C42.2751 83.6105 37.8031 79.7249 35.9963 74.4699V74.4575C34.4879 70.123 34.9817 65.3405 37.3437 61.4075C37.9321 60.4271 37.6161 59.1542 36.638 58.5644C35.6598 57.9747 34.3899 58.2914 33.8015 59.2718C32.8858 60.8011 32.1828 62.4486 31.7122 64.1687C29.95 64.4034 28.1732 63.8571 26.8454 62.6722C25.5176 61.4874 24.7707 59.7816 24.7994 58V57.9171C24.7978 57.372 24.5782 56.8503 24.1898 56.4687C23.8014 56.0872 23.2765 55.8777 22.7328 55.8871C21.5838 55.9075 20.6637 56.8482 20.6662 58C20.673 63.7172 25.2953 68.3503 30.9992 68.3571H31.0695C31.0509 68.7051 30.9992 69.049 30.9992 69.3928C31.0037 70.882 31.1778 72.3657 31.5179 73.8153C24.9952 75.585 18.0222 74.2097 12.6547 70.0948C7.28717 65.9799 4.13715 59.5947 4.13326 52.8214C4.12705 49.2816 4.99312 45.7951 6.65452 42.6714C7.60408 43.9567 8.7929 45.0456 10.1554 45.878C10.7885 46.2587 11.5762 46.272 12.2217 45.9128C12.8672 45.5536 13.2726 44.8765 13.285 44.1366C13.2974 43.3966 12.915 42.7062 12.2819 42.3255C9.08969 40.4121 7.56547 36.5974 8.5575 33.0044C9.54953 29.4113 12.8135 26.9248 16.5329 26.9286C19.141 26.9189 21.5973 28.1561 23.1461 30.2594C23.8309 31.1746 25.1263 31.3601 26.0393 30.6737C26.9524 29.9873 27.1375 28.6889 26.4527 27.7737C24.1385 24.6367 20.477 22.7859 16.5846 22.7857C17.1243 16.9239 22.0262 12.4368 27.8993 12.4286C28.8984 12.4346 29.8922 12.5739 30.8546 12.8429C30.3563 13.9321 29.9484 15.0607 29.6353 16.2172C29.4963 16.749 29.5739 17.3144 29.8511 17.7888C30.1282 18.2632 30.5822 18.6077 31.1129 18.7464C31.6434 18.8857 32.2075 18.8079 32.6808 18.5301C33.1541 18.2523 33.4978 17.7973 33.6362 17.2654C34.0447 15.6877 34.6708 14.1748 35.4962 12.7704C38.6863 7.43648 44.4276 4.16388 50.632 4.14286C54.3405 4.14067 57.9538 5.31938 60.9506 7.50893C60.2779 9.06138 59.9311 10.736 59.9318 12.4286C59.9318 13.5726 60.857 14.5 61.9984 14.5C63.1398 14.5 64.065 13.5726 64.065 12.4286C64.065 7.85249 67.766 4.14286 72.3315 4.14286C76.8969 4.14286 80.5979 7.85249 80.5979 12.4286C80.5979 13.5726 81.5232 14.5 82.6645 14.5C83.8059 14.5 84.7311 13.5726 84.7311 12.4286C84.7276 11.7341 84.6654 11.0411 84.5451 10.3571H84.7311C95.7682 10.4152 105.189 18.3657 107.127 29.2568C105.302 29.6084 103.58 30.3705 102.091 31.4857C101.178 32.1721 100.993 33.4705 101.677 34.3857C102.362 35.3009 103.658 35.4864 104.571 34.8C107.701 32.4438 112.05 32.6112 114.991 35.2009C117.932 37.7907 118.657 42.0928 116.728 45.5072C115.87 47.0059 114.571 48.2025 113.009 48.9333C111.975 49.4184 111.529 50.6519 112.012 51.6883C112.496 52.7248 113.727 53.1718 114.761 52.6868C116.069 52.0612 117.258 51.2116 118.274 50.1762C121.054 55.8526 120.102 62.6538 115.871 67.3442L115.883 67.3463Z" fill=""/>
<path d="M74.3981 39.3571H66.1316V20.7143C66.1317 19.8136 65.5512 19.016 64.6954 18.7413C63.8396 18.4665 62.9048 18.7776 62.3828 19.5108L41.7167 48.5108C41.2669 49.1422 41.207 49.9727 41.5613 50.6625C41.9156 51.3523 42.6248 51.7858 43.3989 51.7857H51.6653V70.4286C51.6652 71.3293 52.2458 72.1268 53.1016 72.4015C53.9574 72.6763 54.8922 72.3652 55.4142 71.632L76.0803 42.6321C76.53 42.0006 76.59 41.1702 76.2356 40.4804C75.8813 39.7906 75.1721 39.3571 74.3981 39.3571ZM55.7986 63.9636V49.7143C55.7986 48.5703 54.8733 47.6428 53.7319 47.6428H47.4143L61.9984 27.1792V41.4286C61.9984 42.5726 62.9236 43.5 64.065 43.5H70.3826L55.7986 63.9636Z" fill=""/>
</svg>
