<svg width="120" height="120" viewBox="0 0 120 120" fill="" xmlns="http://www.w3.org/2000/svg">
<path d="M118.156 42.0745L89.9891 13.9071C89.9879 13.9059 89.9867 13.9045 89.9855 13.9034C89.9851 13.9029 89.9844 13.9024 89.9837 13.9017L77.9255 1.84383C76.7365 0.654844 75.1559 0 73.4745 0C71.7931 0 70.2125 0.654609 69.0233 1.84359L58.3114 12.5555L53.978 8.22211C52.0817 6.32578 48.9962 6.32578 47.0998 8.22211L20.6433 34.6788C18.747 36.5752 18.747 39.6607 20.6433 41.557L24.9767 45.8904L14.2648 56.6023C13.0758 57.7913 12.421 59.3719 12.421 61.0533C12.421 62.7347 13.0756 64.3153 14.2646 65.5045L22.475 73.7149L10.0915 86.0984C9.17631 87.0136 9.17631 88.4977 10.0915 89.4131C10.5493 89.8709 11.149 90.0996 11.7488 90.0996C12.3486 90.0996 12.9486 89.8709 13.4061 89.4131L25.7895 77.0297L26.3239 77.5641C26.3241 77.5643 26.3246 77.565 26.3248 77.5652L32.7223 83.9627L0.686548 115.999C-0.228687 116.914 -0.228687 118.398 0.686548 119.314C1.14428 119.771 1.74405 120 2.34381 120C2.94358 120 3.54358 119.771 4.00108 119.314L36.0376 87.2773L43.013 94.2527L28.2172 109.049C27.3019 109.964 27.3019 111.448 28.2172 112.363C28.6747 112.821 29.2747 113.05 29.8744 113.05C30.4742 113.05 31.0742 112.821 31.5317 112.363L46.3276 97.5673L54.4958 105.735C55.6848 106.924 57.2654 107.579 58.9468 107.579C60.6282 107.579 62.2088 106.924 63.3978 105.735L99.354 69.7793C100.269 68.8641 100.269 67.38 99.354 66.4645C98.4387 65.5493 96.9547 65.5493 96.0392 66.4645L60.083 102.421C59.7795 102.724 59.3759 102.892 58.9465 102.892C58.5172 102.892 58.1136 102.724 57.8098 102.421L47.9851 92.5962C47.9853 92.5964 47.9848 92.5959 47.9851 92.5962C47.9848 92.5959 47.9841 92.595 47.9839 92.595L35.2365 79.8473C36.2977 79.5403 37.3163 79.0341 38.2339 78.3248L56.5301 64.1869L57.8656 65.5223C58.3051 65.9618 58.9013 66.2088 59.5229 66.2088C60.1444 66.2088 60.7407 65.9618 61.1801 65.5223L62.3166 64.3859L64.7103 66.7798C66.7076 68.7771 69.3315 69.7758 71.9553 69.7758C74.5789 69.7758 77.2027 68.7771 79.2003 66.7798C81.1355 64.8445 82.2012 62.2716 82.2012 59.5348C82.2012 56.798 81.1355 54.225 79.2003 52.29L76.8066 49.8961L77.9431 48.7596C78.8583 47.8444 78.8583 46.3603 77.9431 45.4451L76.6076 44.1096L90.7456 25.8134C91.4551 24.8953 91.9599 23.8763 92.2669 22.8148L114.842 45.3895C115.145 45.693 115.312 46.0966 115.312 46.526C115.312 46.9554 115.145 47.359 114.841 47.6625L109.297 53.2069C108.382 54.1221 108.382 55.6062 109.297 56.5216C109.755 56.9794 110.355 57.2081 110.954 57.2081C111.554 57.2081 112.154 56.9794 112.612 56.5216L118.156 50.9773C119.345 49.7883 120 48.2074 120 46.526C120 44.8446 119.345 43.2635 118.156 42.0745ZM23.9579 38.2425C23.8892 38.1741 23.8892 38.062 23.9579 37.9936L50.4146 11.5369C50.4273 11.524 50.4662 11.4853 50.539 11.4853C50.6119 11.4853 50.6508 11.524 50.6635 11.5369L54.9969 15.8702L28.2915 42.5759L23.9579 38.2425ZM57.2501 58.2773L70.6983 44.8291L72.9713 47.1023L71.836 48.2377C71.8355 48.2381 71.8353 48.2384 71.8348 48.2388L60.6596 59.4141C60.6591 59.4145 60.6589 59.4148 60.6584 59.4152L59.5231 60.5508L57.2501 58.2773ZM75.886 55.6043C76.9358 56.6541 77.514 58.05 77.514 59.5345C77.514 61.0193 76.9358 62.4152 75.886 63.465C73.719 65.6323 70.1926 65.6323 68.0253 63.465L65.6316 61.0711L73.4923 53.2104L75.886 55.6043ZM87.0369 22.9472L73.2662 40.7679L72.3556 39.8573C71.9162 39.4179 71.3199 39.1709 70.6983 39.1709C70.0768 39.1709 69.4805 39.4179 69.0411 39.8573L52.2783 56.6201C51.3631 57.5353 51.3631 59.0194 52.2783 59.9346L53.1889 60.8452L35.3682 74.6159C33.6437 75.9487 31.1808 75.7915 29.6396 74.25C29.6398 74.2502 29.6394 74.2498 29.6396 74.25L17.5796 62.19C17.2761 61.8865 17.1087 61.4829 17.1087 61.0535C17.1087 60.6241 17.2758 60.2205 17.5796 59.917L72.338 5.15812C72.6415 4.85461 73.0451 4.6875 73.4745 4.6875C73.9039 4.6875 74.3075 4.85461 74.611 5.15812L86.6717 17.2188C88.2123 18.7601 88.3693 21.2224 87.0369 22.9472Z" fill=""/>
<path d="M22.9242 115.312C22.3078 115.312 21.7031 115.563 21.2672 115.999C20.8312 116.435 20.5805 117.04 20.5805 117.656C20.5805 118.273 20.8312 118.877 21.2672 119.313C21.7031 119.749 22.3078 120 22.9242 120C23.5406 120 24.1453 119.749 24.5812 119.313C25.0172 118.877 25.268 118.273 25.268 117.656C25.268 117.04 25.0172 116.435 24.5812 115.999C24.1453 115.563 23.5406 115.312 22.9242 115.312Z" fill=""/>
<path d="M104.311 59.1352C103.695 59.1352 103.09 59.3859 102.654 59.8219C102.218 60.2578 101.967 60.8625 101.967 61.4789C101.967 62.0953 102.218 62.7 102.654 63.1359C103.09 63.5719 103.695 63.8227 104.311 63.8227C104.93 63.8227 105.532 63.5719 105.968 63.1359C106.406 62.7 106.655 62.0953 106.655 61.4789C106.655 60.8625 106.406 60.2578 105.968 59.8219C105.532 59.3859 104.93 59.1352 104.311 59.1352Z" fill=""/>
</svg>
