<svg width="34" height="34" viewBox="0 0 34 34" fill="" xmlns="http://www.w3.org/2000/svg">
<path d="M26.4599 20.7588C25.7738 20.0444 24.9463 19.6625 24.0693 19.6625C23.1994 19.6625 22.3648 20.0374 21.6504 20.7517L19.4155 22.9796C19.2316 22.8806 19.0477 22.7887 18.8709 22.6967C18.6162 22.5694 18.3758 22.4492 18.1707 22.3219C16.0771 20.9922 14.1746 19.2594 12.3498 17.0173C11.4657 15.8998 10.8716 14.9591 10.4402 14.0043C11.0201 13.4739 11.5577 12.9222 12.081 12.3917C12.2791 12.1937 12.4771 11.9886 12.6751 11.7906C14.1604 10.3053 14.1604 8.38151 12.6751 6.89623L10.7443 4.96538C10.525 4.74612 10.2987 4.51979 10.0865 4.29347C9.66216 3.85496 9.21658 3.4023 8.75685 2.97794C8.0708 2.29896 7.25036 1.93825 6.38749 1.93825C5.52461 1.93825 4.69003 2.29896 3.98276 2.97794C3.97569 2.98501 3.97569 2.98501 3.96861 2.99209L1.56389 5.41803C0.658576 6.32334 0.142267 7.42669 0.0291032 8.70685C-0.140642 10.7721 0.467612 12.6959 0.934413 13.9548C2.08019 17.0456 3.7918 19.9101 6.34505 22.9796C9.44291 26.6787 13.1702 29.5997 17.428 31.6579C19.0547 32.4288 21.2261 33.3412 23.652 33.4968C23.8005 33.5038 23.9561 33.5109 24.0976 33.5109C25.7314 33.5109 27.1035 32.9239 28.1786 31.7569C28.1856 31.7427 28.1998 31.7357 28.2069 31.7215C28.5746 31.2759 28.999 30.8728 29.4446 30.4414C29.7487 30.1514 30.0599 29.8472 30.364 29.529C31.0642 28.8005 31.432 27.9517 31.432 27.0818C31.432 26.2048 31.0572 25.3631 30.3428 24.6559L26.4599 20.7588ZM28.9919 28.2064C28.9849 28.2134 28.9849 28.2064 28.9919 28.2064C28.7161 28.5034 28.4332 28.7722 28.1291 29.0692C27.6693 29.5078 27.2025 29.9675 26.764 30.4838C26.0497 31.2476 25.208 31.6084 24.1047 31.6084C23.9986 31.6084 23.8854 31.6084 23.7793 31.6013C21.6787 31.4669 19.7267 30.6465 18.2626 29.9463C14.2594 28.0083 10.7443 25.257 7.82325 21.7702C5.41145 18.8633 3.79887 16.1757 2.73089 13.29C2.07312 11.5289 1.83265 10.1568 1.93874 8.86245C2.00947 8.03494 2.32774 7.34889 2.91478 6.76185L5.32658 4.35005C5.67314 4.0247 6.04092 3.84789 6.40163 3.84789C6.84721 3.84789 7.20792 4.11665 7.43425 4.34298C7.44132 4.35005 7.4484 4.35712 7.45547 4.36419C7.88691 4.76734 8.29712 5.18463 8.72856 5.63021C8.94781 5.85654 9.17414 6.08287 9.40047 6.31627L11.3313 8.24712C12.081 8.99683 12.081 9.68996 11.3313 10.4397C11.1262 10.6448 10.9282 10.8499 10.7231 11.0479C10.129 11.6562 9.56314 12.222 8.94782 12.7737C8.93367 12.7878 8.91952 12.7949 8.91245 12.809C8.3042 13.4173 8.41736 14.0114 8.54467 14.4145C8.55174 14.4358 8.55882 14.457 8.56589 14.4782C9.06805 15.6947 9.77532 16.8405 10.8504 18.2055L10.8575 18.2126C12.8095 20.6173 14.8677 22.4916 17.138 23.9274C17.428 24.1113 17.7251 24.2598 18.008 24.4012C18.2626 24.5285 18.5031 24.6488 18.7082 24.7761C18.7365 24.7902 18.7648 24.8115 18.7931 24.8256C19.0335 24.9458 19.2599 25.0024 19.4933 25.0024C20.0803 25.0024 20.4481 24.6346 20.5683 24.5144L22.9872 22.0955C23.2277 21.8551 23.6096 21.5651 24.0552 21.5651C24.4937 21.5651 24.8544 21.8409 25.0736 22.0814C25.0807 22.0885 25.0807 22.0885 25.0878 22.0955L28.9849 25.9926C29.7133 26.714 29.7133 27.4567 28.9919 28.2064Z" fill=""/>
<path d="M18.0858 7.97142C19.9389 8.28262 21.6222 9.15964 22.966 10.5035C24.3098 11.8473 25.1798 13.5306 25.498 15.3836C25.5758 15.8504 25.979 16.1758 26.4387 16.1758C26.4953 16.1758 26.5448 16.1687 26.6014 16.1616C27.1248 16.0768 27.4713 15.5817 27.3865 15.0583C27.0045 12.8162 25.9436 10.7722 24.324 9.15257C22.7043 7.53291 20.6603 6.472 18.4182 6.09008C17.8948 6.0052 17.4068 6.35177 17.3149 6.86808C17.2229 7.38439 17.5624 7.88655 18.0858 7.97142Z" fill=""/>
<path d="M33.4478 14.7824C32.8183 11.0905 31.0784 7.73091 28.4049 5.05741C25.7314 2.38392 22.3719 0.64403 18.6799 0.0145567C18.1636 -0.0773888 17.6756 0.276248 17.5836 0.792557C17.4988 1.31594 17.8453 1.80396 18.3687 1.8959C21.6646 2.45465 24.6705 4.01772 27.0611 6.40123C29.4517 8.79181 31.0077 11.7977 31.5664 15.0936C31.6442 15.5604 32.0474 15.8858 32.5071 15.8858C32.5637 15.8858 32.6132 15.8787 32.6698 15.8716C33.1861 15.7938 33.5397 15.2987 33.4478 14.7824Z" fill=""/>
</svg>
