<svg width="17" height="17" viewBox="0 0 17 17" fill="" xmlns="http://www.w3.org/2000/svg">
<path d="M12.9247 11.2458C12.3692 10.6975 11.6759 10.6975 11.124 11.2458C10.703 11.6633 10.282 12.0807 9.86815 12.5052C9.75494 12.6219 9.65943 12.6467 9.52146 12.5689C9.24906 12.4203 8.95898 12.3 8.69719 12.1373C7.47671 11.3696 6.45434 10.3827 5.5487 9.27189C5.09943 8.72003 4.69967 8.12926 4.4202 7.4642C4.3636 7.32978 4.37421 7.24134 4.48388 7.13168C4.90486 6.72486 5.31522 6.30743 5.72912 5.89C6.30576 5.30984 6.30576 4.63064 5.72559 4.04694C5.39659 3.71441 5.06759 3.38896 4.73859 3.05643C4.39898 2.71683 4.0629 2.37369 3.71975 2.03762C3.16434 1.49638 2.47097 1.49638 1.9191 2.04116C1.49459 2.45859 1.08776 2.88663 0.656168 3.29698C0.256416 3.6755 0.0547717 4.13892 0.0123202 4.68016C-0.0548947 5.56101 0.1609 6.39233 0.465136 7.20243C1.08776 8.87922 2.03584 10.3685 3.18557 11.734C4.73859 13.5806 6.5923 15.0416 8.76087 16.0958C9.73725 16.5698 10.749 16.9342 11.8492 16.9943C12.6063 17.0368 13.2643 16.8458 13.7914 16.255C14.1522 15.8517 14.559 15.4838 14.9411 15.0982C15.5071 14.5251 15.5107 13.8318 14.9482 13.2658C14.276 12.5901 13.6003 11.918 12.9247 11.2458Z" fill=""/>
<path d="M12.249 8.42642L13.5544 8.20355C13.3492 7.00433 12.7831 5.9183 11.9235 5.05514C11.0143 4.14599 9.86461 3.57291 8.59814 3.39604L8.41418 4.70846C9.3941 4.84643 10.2856 5.28862 10.9896 5.99259C11.6546 6.65765 12.0898 7.49958 12.249 8.42642Z" fill=""/>
<path d="M14.2902 2.7522C12.7832 1.24521 10.8764 0.293616 8.77148 0L8.58753 1.31243C10.4059 1.56713 12.0544 2.39138 13.3562 3.68965C14.5909 4.92425 15.401 6.48431 15.6946 8.20001L17 7.97715C16.6569 5.98905 15.7194 4.18491 14.2902 2.7522Z" fill=""/>
</svg>
