<svg width="26" height="35" viewBox="0 0 26 35" fill="" xmlns="http://www.w3.org/2000/svg">
<path d="M12.9538 0.746094C6.12783 0.746094 0.574707 6.29922 0.574707 13.1252C0.574707 15.3724 1.58251 17.7892 1.62475 17.8912C1.95024 18.6638 2.5925 19.8638 3.05563 20.5672L11.5433 33.4277C11.8907 33.9549 12.4048 34.2571 12.9538 34.2571C13.5029 34.2571 14.017 33.9549 14.3643 33.4284L22.8527 20.5672C23.3166 19.8638 23.9581 18.6638 24.2836 17.8912C24.3258 17.79 25.3329 15.3731 25.3329 13.1252C25.3329 6.29922 19.7798 0.746094 12.9538 0.746094ZM22.9408 17.3261C22.6503 18.0186 22.0525 19.1349 21.6367 19.7655L13.1482 32.6267C12.9808 32.8808 12.9276 32.8808 12.7601 32.6267L4.27169 19.7655C3.8559 19.1349 3.25806 18.0179 2.96752 17.3254C2.95514 17.2955 2.03107 15.0709 2.03107 13.1252C2.03107 7.10241 6.93102 2.20246 12.9538 2.20246C18.9766 2.20246 23.8766 7.10241 23.8766 13.1252C23.8766 15.0738 22.9503 17.3043 22.9408 17.3261Z" fill=""/>
<path d="M12.9538 6.57232C9.33984 6.57232 6.40016 9.51273 6.40016 13.126C6.40016 16.7392 9.33984 19.6796 12.9538 19.6796C16.5678 19.6796 19.5075 16.7392 19.5075 13.126C19.5075 9.51273 16.5678 6.57232 12.9538 6.57232ZM12.9538 18.2233C10.1438 18.2233 7.85653 15.9368 7.85653 13.126C7.85653 10.3152 10.1438 8.02869 12.9538 8.02869C15.7639 8.02869 18.0511 10.3152 18.0511 13.126C18.0511 15.9368 15.7639 18.2233 12.9538 18.2233Z" fill=""/>
</svg>
