<svg width="22" height="19" viewBox="0 0 22 19" fill="" xmlns="http://www.w3.org/2000/svg">
<path d="M21.6632 0.507933C21.3947 0.180411 20.9916 0 20.5282 0C20.2782 0 20.0134 0.0519973 19.741 0.154498L1.11533 7.16558C0.124994 7.53844 -0.00830037 8.09969 0.000379633 8.40105C0.00901667 8.70091 0.172777 9.24965 1.1696 9.56641L5.11965 11.0045L7.20143 15.7388C7.4107 16.3936 7.84796 16.8529 8.40606 17.0019C8.53472 17.0363 8.66608 17.0532 8.79838 17.0532C9.25163 17.0532 9.71571 16.8549 10.1165 16.4809L11.8412 14.8711L16.0495 17.7488C16.4285 18.027 16.8409 18.174 17.243 18.1739C18.0592 18.1739 18.7102 17.5803 18.9014 16.6617L21.9476 2.02465C22.0728 1.42309 21.9718 0.884465 21.6632 0.507933ZM6.42874 10.7823L11.8039 7.9186L8.05779 11.3325C7.92441 11.4541 7.85011 11.6253 7.8499 11.8037C7.84964 11.8103 7.84882 11.8167 7.84878 11.8233L7.83585 13.9822L6.42874 10.7823ZM9.23389 15.5475C9.19414 15.5846 9.15431 15.6172 9.11494 15.6456L9.13071 13.0175L10.7546 14.128L9.23389 15.5475ZM20.6852 1.7653L17.6391 16.4023C17.6083 16.5499 17.5082 16.8932 17.243 16.8932C17.1191 16.8932 16.9654 16.8298 16.8103 16.7147C16.8036 16.7098 16.7969 16.705 16.79 16.7004L12.1506 13.5278C12.1499 13.5274 12.1493 13.527 12.1487 13.5265L9.52561 11.7328L16.4548 5.41817C16.6942 5.19998 16.7328 4.83885 16.5447 4.57562C16.3566 4.31239 16.0008 4.2294 15.7145 4.38194L5.55008 9.79724L1.59995 8.35913C1.59707 8.35806 1.59419 8.35703 1.59127 8.35601L20.1978 1.35214C20.3546 1.2931 20.4641 1.28072 20.5282 1.28072C20.5601 1.28072 20.637 1.28422 20.6636 1.31666C20.6976 1.3582 20.7405 1.49947 20.6852 1.7653Z" fill=""/>
</svg>
