<svg width="14" height="16" viewBox="0 0 14 16" fill="" xmlns="http://www.w3.org/2000/svg">
<path d="M7.00105 8.3084C9.2354 8.3084 11.0619 6.43993 11.0619 4.1542C11.0619 1.86847 9.2354 0 7.00105 0C4.76671 0 2.94027 1.86847 2.94027 4.1542C2.94027 6.43993 4.76674 8.3084 7.00105 8.3084Z" fill=""/>
<path d="M13.9701 11.6281C13.8637 11.356 13.7218 11.102 13.5622 10.8662C12.7465 9.63262 11.4875 8.8163 10.0689 8.61675C9.89157 8.59863 9.69651 8.63488 9.55463 8.74373C8.80985 9.30609 7.92323 9.59634 7.0011 9.59634C6.07897 9.59634 5.19234 9.30609 4.44756 8.74373C4.30569 8.63488 4.11062 8.58047 3.93331 8.61675C2.51468 8.8163 1.23793 9.63262 0.439962 10.8662C0.280368 11.102 0.138492 11.3742 0.0321182 11.6281C-0.0210685 11.737 -0.00335091 11.8639 0.0498357 11.9728C0.191712 12.2268 0.369024 12.4808 0.528617 12.6984C0.776867 13.0431 1.04287 13.3515 1.34434 13.6417C1.59259 13.8957 1.87631 14.1315 2.16006 14.3674C3.56094 15.4377 5.24556 16 6.98338 16C8.7212 16 10.4058 15.4376 11.8067 14.3674C12.0904 14.1497 12.3741 13.8957 12.6224 13.6417C12.9061 13.3515 13.1899 13.0431 13.4381 12.6984C13.6155 12.4626 13.7751 12.2268 13.9169 11.9728C14.0055 11.8639 14.0233 11.7369 13.9701 11.6281Z" fill=""/>
</svg>
