<svg width="129" height="61" viewBox="0 0 129 61" fill="none" xmlns="http://www.w3.org/2000/svg">
<path d="M51.7697 0.934651H43.821V16.573H46.2542V3.19149H51.7928V0.934651H51.7697ZM58.9073 0L51.0049 16.5502H53.6236L58.8146 5.22037L61.1784 10.5091H57.0534L57.9108 12.766H62.1517L63.8202 16.5502H66.4389L58.9073 0ZM29.2676 0.911855H26.8343V17.2569L37.5639 6.01824V16.5502H39.9972V0.25076L29.2676 11.4894V0.911855ZM9.05981 16.5502H11.6321L16.8463 5.26596L19.1869 10.5547L20.1602 12.766L21.8287 16.5502H24.4474L16.8927 0L9.05981 16.5502Z" fill="white"/>
<path d="M44.5282 41.4331C40.5541 41.4331 37.2269 44.3395 36.4876 48.1613H34.177V41.9366H31.751V57.6357H34.177V50.4269H36.372C36.6955 54.7293 40.2306 58.1392 44.5282 58.1392C49.0568 58.1392 52.7306 54.386 52.7306 49.7862C52.7306 45.1863 49.0568 41.4331 44.5282 41.4331ZM44.5282 55.9651C41.2241 55.9651 38.5208 53.196 38.5208 49.7862C38.5208 46.3763 41.2241 43.6072 44.5282 43.6072C47.8323 43.6072 50.5356 46.3763 50.5356 49.7862C50.5356 53.196 47.8554 55.9651 44.5282 55.9651Z" fill="white"/>
<path d="M91.0159 39.2593H86.4641V41.0443H91.0159V39.2593Z" fill="white"/>
<path d="M14.2368 57.6355H16.8015L22.0233 46.3074L24.3569 51.6397L25.3273 53.8595L26.9909 57.6355H29.5787L22.0464 41.021L14.2368 57.6355Z" fill="white"/>
<path d="M66.1546 41.9365H56.2655V49.1453C56.2655 50.9304 56.0807 52.3035 55.6879 53.2646C55.4338 53.8825 55.0872 54.4089 54.6482 54.7979C54.2092 55.187 53.724 55.3929 53.1694 55.3701V60.9998L55.4569 59.9471V57.6357H65.6694V59.9013H67.9568V55.3929H66.1546V41.9365ZM63.7286 55.3701H56.9125C57.4439 54.8437 57.8598 54.2258 58.1371 53.5164C58.5068 52.5552 58.6916 51.0906 58.6916 49.1453V44.2021H63.7286V55.3701Z" fill="white"/>
<path d="M85.0779 52.5553V41.9366H82.6519V58.3452L93.3496 47.0629V57.6358H95.7757V41.2729L85.0779 52.5553Z" fill="white"/>
<path d="M70.8909 57.6357H79.6248V55.37H73.317V49.8547H79.4399V47.5891H73.317V44.2021H79.6248V41.9365H70.8909V57.6357Z" fill="white"/>
<path d="M49.278 36.9848H58.0191V34.7216H51.683V29.4179H57.8109V27.1547H51.683V23.5427H58.0191V21.2795H49.278V36.9848ZM33.5535 36.9848H35.9815V23.5656H42.7801V36.9848H45.2082V21.3024H33.5535V36.9848ZM71.8012 21.7367H69.3731V34.0586L71.8012 32.4127V21.7367ZM6.93731 29.7608L2.61305 21.3024H0L4.11614 29.7608H6.93731ZM4.06988 36.9848H6.82169L13.9902 21.3024H11.2384L4.06988 36.9848ZM22.7081 23.0169C25.0437 23.0169 27.0787 24.3886 28.073 26.3774H30.6167C29.4836 23.0855 26.3618 20.708 22.7081 20.708C18.1064 20.708 14.3371 24.48 14.3371 29.1207C14.3371 33.7614 18.0833 37.5334 22.7081 37.5334C26.3618 37.5334 29.4836 35.1559 30.6167 31.864H28.073C27.0787 33.8529 25.0437 35.2245 22.7081 35.2245C19.4014 35.2245 16.6958 32.4812 16.6958 29.1207C16.6958 25.7602 19.4014 23.0169 22.7081 23.0169ZM110.835 36.9848H113.263V21.3024H110.835V36.9848ZM123.392 28.8007L127.947 21.3024H125.242L122.074 26.6061L118.975 21.3024H116.269L120.64 28.8007L115.645 36.9848H118.351L121.958 30.9953L125.427 36.9848H128.132L123.392 28.8007ZM93.0525 29.2808H86.2539V21.3024H83.8259V36.9848H86.2539V31.544H93.0525V36.9848H95.4806V21.3024H93.0525V29.2808ZM107.667 28.8693C106.719 28.0463 105.401 27.6348 103.69 27.6348H101.886V21.3024H99.4579V36.9848H101.886H104.268C105.47 36.9162 106.442 36.6419 107.205 36.1389C107.829 35.7275 108.315 35.1559 108.661 34.493C109.008 33.8072 109.17 33.0985 109.17 32.3441C109.17 30.881 108.661 29.738 107.667 28.8693ZM103.597 34.7216H102.695H101.886V29.8751H103.643C104.8 29.8751 105.609 30.1037 106.072 30.5838C106.534 31.0639 106.765 31.6354 106.765 32.3441C106.788 33.9443 105.725 34.7216 103.597 34.7216ZM77.4204 34.7216H63.777V21.3024H61.349V36.9848H79.8485V21.3024H77.4204V34.7216Z" fill="white"/>
</svg>
