<svg width="92" height="129" viewBox="0 0 92 129" fill="none" xmlns="http://www.w3.org/2000/svg">
<path d="M46 0C20.6355 0 0 20.958 0 46.7187C0 78.6886 41.1655 125.622 42.9182 127.605C44.5644 129.467 47.4386 129.464 49.0819 127.605C50.8345 125.622 92 78.6886 92 46.7187C91.9995 20.958 71.3643 0 46 0ZM46 70.2242C33.2385 70.2242 22.8565 59.6797 22.8565 46.7187C22.8565 33.7577 33.2387 23.2135 46 23.2135C58.7613 23.2135 69.1433 33.758 69.1433 46.719C69.1433 59.68 58.7613 70.2242 46 70.2242Z" fill="#C3B094"/>
</svg>
