<svg width="86" height="86" viewBox="0 0 86 86" fill="none" xmlns="http://www.w3.org/2000/svg">
<g clip-path="url(#clip0_127_786)">
<path d="M43.0144 20.9194C30.8203 20.9194 20.9482 30.8023 20.9482 42.9856C20.9482 55.1797 30.8311 65.0518 43.0144 65.0518C55.2085 65.0518 65.0806 55.1689 65.0806 42.9856C65.0806 30.7915 55.1977 20.9194 43.0144 20.9194ZM43.0144 57.3082C35.0988 57.3082 28.6918 50.8976 28.6918 42.9856C28.6918 35.0736 35.1024 28.663 43.0144 28.663C50.9264 28.663 57.337 35.0736 57.337 42.9856C57.3406 50.8976 50.93 57.3082 43.0144 57.3082Z" fill="#C3B094"/>
<path d="M60.7302 0.272577C52.8182 -0.0965064 33.2209 -0.0785897 25.3018 0.272577C18.3429 0.59866 12.2047 2.27924 7.25609 7.22783C-1.01425 15.4982 0.0428378 26.6423 0.0428378 42.9859C0.0428378 59.7129 -0.888829 70.5991 7.25609 78.744C15.5587 87.043 26.8641 85.9573 43.0142 85.9573C59.5835 85.9573 65.3025 85.968 71.1612 83.6998C79.127 80.6073 85.1398 73.4873 85.7275 60.6983C86.1002 52.7827 86.0787 33.1891 85.7275 25.2699C85.018 10.1733 76.9161 1.01791 60.7302 0.272577ZM73.2539 73.2723C67.8323 78.6938 60.3109 78.2101 42.9103 78.2101C24.9936 78.2101 17.809 78.4753 12.5666 73.2185C6.52867 67.2093 7.62159 57.5593 7.62159 42.9286C7.62159 23.1307 5.58984 8.87258 25.4594 7.85491C30.0246 7.69366 31.3683 7.63991 42.8601 7.63991L43.0213 7.74741C62.1169 7.74741 77.0988 5.74791 77.9983 25.6139C78.2025 30.1468 78.2491 31.5085 78.2491 42.9823C78.2455 60.6912 78.5823 67.9188 73.2539 73.2723Z" fill="white"/>
<path d="M65.9548 25.2049C68.8026 25.2049 71.1112 22.8963 71.1112 20.0485C71.1112 17.2007 68.8026 14.8921 65.9548 14.8921C63.1069 14.8921 60.7983 17.2007 60.7983 20.0485C60.7983 22.8963 63.1069 25.2049 65.9548 25.2049Z" fill="white"/>
</g>
<defs>
<clipPath id="clip0_127_786">
<rect width="86" height="86" fill="white"/>
</clipPath>
</defs>
</svg>
