<svg width="118" height="35" viewBox="0 0 118 35" fill="none" xmlns="http://www.w3.org/2000/svg">
<path d="M6.94312 34.6267H0V0H6.94312V17.78L14.6731 9.47333H23.4215L13.9325 19.6467L23.7918 34.6267H15.5526L9.21121 25.0133L6.94312 27.3933V34.6267Z" fill="#F5F3F6"/>
<path d="M40.6277 15.68C38.5602 15.68 37.0173 16.4267 35.999 17.92C34.9807 19.3822 34.4715 21.3267 34.4715 23.7533V34.6267H27.5284V9.52H34.4715V12.8333C35.3664 11.8067 36.4773 10.9356 37.8042 10.22C39.162 9.50445 40.5352 9.13111 41.9238 9.1L41.9701 15.68H40.6277Z" fill="#F5F3F6"/>
<path d="M62.6204 23.0533V9.52H69.6099V34.6267H62.6204V31.3133C60.8924 33.7711 58.6552 35 55.9088 35C53.1932 35 50.9097 34.1444 49.0582 32.4333C47.2067 30.6911 46.281 28.1244 46.281 24.7333V9.52H53.2704V23.1933C53.2704 27.0511 54.6744 28.98 57.4825 28.98C58.8712 28.98 60.0746 28.4822 61.093 27.4867C62.1113 26.46 62.6204 24.9822 62.6204 23.0533Z" fill="#F5F3F6"/>
<path d="M89.1269 34.6267H81.9523L73.4817 9.52H80.6563L85.5165 24.6867L90.3767 9.52H97.0883L101.949 24.6867L110.779 0H118L105.559 34.6267H98.3381L93.7556 20.9533L89.1269 34.6267Z" fill="#F5F3F6"/>
</svg>
