<svg width="169" height="80" viewBox="0 0 169 80" fill="none" xmlns="http://www.w3.org/2000/svg">
<path d="M67.8948 1.22577H57.4702V21.735H60.6614V4.18556H67.9252V1.22577H67.8948ZM77.2556 0L66.8918 21.7051H70.3261L77.134 6.84639L80.234 13.7825H74.8242L75.9487 16.7423H81.5105L83.6987 21.7051H87.1331L77.2556 0ZM38.3839 1.19588H35.1927V22.6319L49.2643 7.89278V21.7051H52.4555V0.328865L38.3839 15.068V1.19588ZM11.8818 21.7051H15.2554L22.0936 6.90618L25.1633 13.8423L26.4397 16.7423L28.628 21.7051H32.0623L22.1544 0L11.8818 21.7051Z" fill="white"/>
<path d="M58.3976 54.3386C53.1857 54.3386 48.8222 58.1503 47.8525 63.1625H44.8223V54.9989H41.6406V75.588H44.8223V66.1338H47.701C48.1253 71.7763 52.7615 76.2483 58.3976 76.2483C64.3368 76.2483 69.1549 71.3261 69.1549 65.2934C69.1549 59.2608 64.3368 54.3386 58.3976 54.3386ZM58.3976 73.397C54.0644 73.397 50.5191 69.7654 50.5191 65.2934C50.5191 60.8215 54.0644 57.1899 58.3976 57.1899C62.7308 57.1899 66.2762 60.8215 66.2762 65.2934C66.2762 69.7654 62.7611 73.397 58.3976 73.397Z" fill="white"/>
<path d="M119.365 51.4875H113.396V53.8286H119.365V51.4875Z" fill="white"/>
<path d="M18.6714 75.5879H22.0349L28.8832 60.7314L31.9437 67.7244L33.2163 70.6357L35.3981 75.5879H38.7919L28.9135 53.7983L18.6714 75.5879Z" fill="white"/>
<path d="M86.7602 54.999H73.7909V64.4532C73.7909 66.7942 73.5485 68.595 73.0334 69.8556C72.7001 70.6659 72.2455 71.3562 71.6698 71.8664C71.0941 72.3767 70.4577 72.6468 69.7305 72.6168V80L72.7304 78.6194V75.5881H86.1238V78.5594H89.1238V72.6468H86.7602V54.999ZM83.5785 72.6168H74.6394C75.3364 71.9265 75.8818 71.1161 76.2454 70.1857C76.7302 68.9251 76.9727 67.0043 76.9727 64.4532V57.9703H83.5785V72.6168Z" fill="white"/>
<path d="M111.578 68.9249V54.9988H108.396V76.5183L122.426 61.7218V75.5879H125.608V54.1284L111.578 68.9249Z" fill="white"/>
<path d="M92.9722 75.5881H104.426V72.6168H96.1539V65.3836H104.184V62.4123H96.1539V57.9703H104.426V54.999H92.9722V75.5881Z" fill="white"/>
<path d="M64.6269 48.505H76.0906V45.5369H67.781V38.5813H75.8176V35.6131H67.781V30.8761H76.0906V27.908H64.6269V48.505ZM44.0045 48.505H47.1889V30.9061H56.105V48.505H59.2894V27.938H44.0045V48.505ZM94.1655 28.5076H90.9812V44.6675L94.1655 42.5088V28.5076ZM9.09812 39.031L3.42695 27.938H0L5.39821 39.031H9.09812ZM5.33755 48.505H8.94648L18.3479 27.938H14.7389L5.33755 48.505ZM29.7812 30.1865C32.8442 30.1865 35.513 31.9854 36.817 34.5938H40.153C38.667 30.2765 34.5728 27.1584 29.7812 27.1584C23.7461 27.1584 18.8028 32.1053 18.8028 38.1915C18.8028 44.2777 23.7158 49.2246 29.7812 49.2246C34.5728 49.2246 38.667 46.1066 40.153 41.7893H36.817C35.513 44.3976 32.8442 46.1965 29.7812 46.1965C25.4444 46.1965 21.8961 42.5988 21.8961 38.1915C21.8961 33.7843 25.4444 30.1865 29.7812 30.1865ZM145.358 48.505H148.542V27.938H145.358V48.505ZM161.825 37.7718L167.8 27.938H164.251L160.097 34.8936L156.033 27.938H152.484L158.216 37.7718L151.666 48.505H155.214L159.945 40.65L164.494 48.505H168.042L161.825 37.7718ZM122.036 38.4014H113.12V27.938H109.936V48.505H113.12V41.3695H122.036V48.505H125.22V27.938H122.036V38.4014ZM141.203 37.8617C139.959 36.7824 138.231 36.2427 135.987 36.2427H133.621V27.938H130.437V48.505H133.621H136.745C138.322 48.4151 139.595 48.0553 140.596 47.3957C141.415 46.8561 142.052 46.1066 142.507 45.2371C142.962 44.3377 143.174 43.4082 143.174 42.4189C143.174 40.5001 142.507 39.001 141.203 37.8617ZM135.865 45.5369H134.682H133.621V39.1809H135.926C137.442 39.1809 138.504 39.4807 139.11 40.1103C139.717 40.7399 140.02 41.4895 140.02 42.4189C140.05 44.5175 138.655 45.5369 135.865 45.5369ZM101.535 45.5369H83.642V27.938H80.4577V48.505H104.719V27.938H101.535V45.5369Z" fill="white"/>
</svg>
