<svg width="170" height="35" viewBox="0 0 170 35" fill="none" xmlns="http://www.w3.org/2000/svg">
<path d="M164.169 6.79169L158.369 13.3367V6.79169H154.171V23.3163H158.369V16.3602L164.578 23.3163H170L162.363 14.6593L169.447 6.79169H164.169ZM146.77 12.9561H140.967V6.79169H136.77V23.3163H140.967V16.8019H146.77V23.3163H150.968V6.79169H146.77V12.9561ZM24.9237 15.74C24.8234 18.8222 24.429 19.4377 22.7071 19.4377V23.3163H23.3488C27.6396 23.3163 28.6709 21.0869 28.8295 16.1253L29.0045 10.6374H33.027V23.3234H37.2269V6.79404H25.2153L24.9237 15.74ZM47.6588 11.812H44.6256V6.79169H40.4257V23.3163H47.7148C52.2903 23.3163 53.9236 20.3234 53.9236 17.5066C53.9236 13.8653 51.6486 11.812 47.6565 11.812H47.6588ZM44.6256 19.6773V15.4816H47.3368C48.7951 15.4816 49.6701 16.1253 49.6701 17.5066C49.6701 19.0031 48.8231 19.6773 47.3368 19.6773H44.6256ZM67.5963 6.41111V0.277212H63.3965V6.41111C58.59 6.81283 55.3538 10.2568 55.3538 15.0352C55.3538 19.8136 58.59 23.2834 63.3988 23.6946V29.9154H67.5987V23.6993C72.4075 23.3163 75.6437 19.8535 75.6437 15.0352C75.6437 10.2169 72.4075 6.78699 67.5963 6.40641V6.41111ZM63.3965 19.7032C61.0633 19.379 59.6073 17.6194 59.6073 15.0352C59.6073 12.451 61.0656 10.6915 63.3965 10.3696V19.7032ZM67.5963 19.7032V10.3743C69.9296 10.6961 71.3972 12.451 71.3972 15.0352C71.3972 17.6194 69.9389 19.379 67.6057 19.7032H67.5963ZM91.3838 18.2396V12.686C91.3838 8.63585 88.8172 6.08222 84.5053 6.08222C80.0442 6.08222 77.683 8.78151 77.48 11.5983H81.7358C81.8805 10.9828 82.5221 9.92559 84.5053 9.92559C86.1386 9.92559 87.1862 10.6891 87.1862 12.686H83.0167C79.2836 12.686 77.0716 14.6523 77.0716 17.9389C77.0716 21.3782 79.4936 23.7275 82.9887 23.7275C85.5553 23.7275 86.9739 22.5082 87.5946 21.5849C88.1475 22.7008 89.3725 23.3163 90.9754 23.3163H92.4337V19.4988C91.6754 19.4988 91.3838 19.1464 91.3838 18.2373V18.2396ZM87.1839 17.1519C87.1839 19.0595 85.8423 20.1448 84.0947 20.1448C82.5781 20.1448 81.3835 19.5881 81.3835 17.9436C81.3835 16.2991 82.6948 16.0642 83.831 16.0642H87.1839V17.1519ZM104.676 9.14094V4.47533H115.549V0.277212H100.276V23.3163H109.375C114.418 23.3163 117.308 20.7932 117.308 16.1558C117.308 11.7815 114.422 9.14094 109.375 9.14094H104.676ZM109.17 19.1488H104.676V13.1558H109.165C111.499 13.1558 112.81 14.2412 112.81 16.1488C112.81 18.1151 111.499 19.1417 109.165 19.1417L109.17 19.1488ZM133.361 18.2396V12.686C133.361 8.63585 130.795 6.08222 126.48 6.08222C122.029 6.08926 119.66 8.78856 119.462 11.6053H123.718C123.865 10.9898 124.506 9.93264 126.487 9.93264C128.121 9.93264 129.171 10.6961 129.171 12.693H124.994C121.261 12.693 119.047 14.6593 119.047 17.9459C119.047 21.3782 121.471 23.7275 124.966 23.7275C127.533 23.7275 128.949 22.5082 129.572 21.5849C130.125 22.7008 131.35 23.3163 132.953 23.3163H134.409V19.4988C133.653 19.4988 133.361 19.1464 133.361 18.2373V18.2396ZM129.161 17.1519C129.161 19.0595 127.82 20.1448 126.07 20.1448C124.555 20.1448 123.358 19.5881 123.358 17.9436C123.358 16.2991 124.672 16.0642 125.808 16.0642H129.161V17.1519ZM0 29.6969H22.4458V34.3931H0V29.6969ZM15.3037 3.43931C14.6621 1.51762 13.9248 0 11.3979 0C8.87099 0 8.08468 1.51057 7.41271 3.43931L0.466648 23.3163H5.07247L6.67541 18.592H15.5417L17.0327 23.3163H21.9325L15.3037 3.43931ZM8.01702 14.6006L11.1646 5.16836H11.2812L14.2538 14.6006H8.01702Z" fill="white"/>
</svg>
