<svg width="146" height="50" viewBox="0 0 146 50" fill="none" xmlns="http://www.w3.org/2000/svg">
<path d="M5.80666 41.0621H43.8965C46.4242 38.0159 48.2512 34.3653 49.1271 30.3623H0.576172C1.45209 34.3904 3.27901 38.0411 5.80666 41.0621Z" fill="white"/>
<path d="M43.9217 8.96265H5.78164C3.25398 12.009 1.42706 15.6596 0.576172 19.6625H49.1521C48.2762 15.6596 46.4492 12.009 43.9217 8.96265Z" fill="white"/>
<path d="M43.8965 41.0876H5.80664C10.2363 46.3747 16.7932 49.7987 24.1509 50.0001H25.5524C32.91 49.7987 39.467 46.3747 43.8965 41.0876Z" fill="white"/>
<path d="M5.78164 8.96265H43.9217C39.417 3.54976 32.6845 0.0755287 25.1265 0H24.5759C17.0431 0.0755287 10.2864 3.54976 5.78164 8.96265Z" fill="white"/>
<path d="M49.7021 25.1513V24.8744C49.7021 23.0869 49.5019 21.3497 49.1265 19.688H0.575603C0.200209 21.3497 0 23.0869 0 24.8744V25.1513C0 26.9388 0.200209 28.7011 0.575603 30.388H49.1265C49.5019 28.676 49.7021 26.9388 49.7021 25.1513Z" fill="white"/>
<path d="M108.678 17.8082C108.678 18.6478 109.325 19.3194 110.18 19.3194C111.015 19.3194 111.682 18.6688 111.682 17.8082C111.682 16.9685 111.015 16.2968 110.18 16.2968C109.325 16.2968 108.678 16.9685 108.678 17.8082Z" fill="white"/>
<path d="M116.525 22.7407L116.421 22.8037L116.233 22.2579C116.17 22.069 116.003 21.9642 115.815 21.9642H114.856C114.605 21.9642 114.396 22.174 114.396 22.4259V34.8525C114.396 35.1043 114.605 35.3142 114.856 35.3142H116.587C116.838 35.3142 117.047 35.1043 117.047 34.8525V24.7979L117.088 24.7768C117.798 24.399 118.528 24.1681 119.926 24.1681C121.616 24.1681 121.95 24.7979 121.95 25.8264V34.8525C121.95 35.1043 122.159 35.3142 122.409 35.3142H124.141C124.391 35.3142 124.6 35.1043 124.6 34.8525V25.9104C124.6 23.1606 122.993 21.7332 119.947 21.7332C118.778 21.7121 117.631 22.0481 116.525 22.7407Z" fill="white"/>
<path d="M111.454 22.4051C111.454 22.1531 111.245 21.9432 110.995 21.9432H109.305C109.054 21.9432 108.846 22.1531 108.846 22.4051V34.8315C108.846 35.0834 109.054 35.2934 109.305 35.2934H110.995C111.245 35.2934 111.454 35.0834 111.454 34.8315V22.4051Z" fill="white"/>
<path d="M105.716 16.1917C105.716 15.9399 105.508 15.7299 105.257 15.7299H103.588C103.338 15.7299 103.129 15.9399 103.129 16.1917V34.8316C103.129 35.0835 103.338 35.2933 103.588 35.2933H105.257C105.508 35.2933 105.716 35.0835 105.716 34.8316V16.1917Z" fill="white"/>
<path d="M79.8206 27.443C79.9458 25.7429 80.4049 24.1476 82.7836 24.1476C84.8493 24.1476 85.2457 25.2601 85.2875 27.443V27.5271H79.8206V27.443ZM77.1289 28.6185C77.1289 30.3188 77.1289 35.5455 82.7626 35.5455C84.4528 35.5455 85.5795 35.4405 87.0193 34.9788C87.1863 34.9158 87.2905 34.7479 87.2905 34.559V33.1526C87.2905 32.9846 87.2071 32.8587 87.0819 32.7747C86.9567 32.6907 86.8107 32.7118 86.6646 32.7327C85.3917 33.0057 84.3902 33.0896 82.7626 33.0896C80.4049 33.0896 79.9458 31.5993 79.7998 29.9619L79.779 29.8569H87.4367C87.687 29.8569 87.8956 29.6471 87.8956 29.3952V28.5976C87.8956 25.2601 87.4993 21.6705 82.7418 21.6705C77.1289 21.7126 77.1289 26.9183 77.1289 28.6185Z" fill="white"/>
<path d="M92.6338 27.443C92.7589 25.7429 93.2181 24.1476 95.5966 24.1476C97.6416 24.1476 98.0589 25.2601 98.1005 27.443V27.5271H92.6129L92.6338 27.443ZM89.9629 28.6185C89.9629 30.3188 89.9629 35.5455 95.5966 35.5455C97.2868 35.5455 98.3927 35.4405 99.8533 34.9788C100.02 34.9158 100.124 34.7479 100.124 34.559V33.1526C100.124 32.9846 100.041 32.8587 99.9159 32.7747C99.7907 32.6907 99.6447 32.7118 99.4986 32.7327C98.2257 33.0057 97.2242 33.0896 95.5966 33.0896C93.2389 33.0896 92.7798 31.5993 92.6338 29.9619V29.8569H100.291C100.542 29.8569 100.751 29.6471 100.751 29.3952V28.5976C100.751 25.2601 100.354 21.6705 95.5966 21.6705C89.9629 21.7126 89.9629 26.9183 89.9629 28.6185Z" fill="white"/>
<path d="M129.503 27.443C129.628 25.7429 130.087 24.1476 132.466 24.1476C134.511 24.1476 134.928 25.2601 134.97 27.443V27.5271H129.503V27.443ZM126.832 28.6185C126.832 30.3188 126.832 35.5455 132.466 35.5455C134.156 35.5455 135.262 35.4405 136.722 34.9788C136.889 34.9158 136.994 34.7479 136.994 34.559V33.1526C136.994 32.9846 136.91 32.8587 136.785 32.7747C136.66 32.6907 136.514 32.7118 136.368 32.7327C135.095 33.0057 134.093 33.0896 132.466 33.0896C130.108 33.0896 129.649 31.5993 129.503 29.9619L129.482 29.8569H137.14C137.39 29.8569 137.599 29.6471 137.599 29.3952V28.5976C137.599 25.2601 137.202 21.6705 132.445 21.6705C126.832 21.7126 126.832 26.9183 126.832 28.6185Z" fill="white"/>
<path d="M68.7832 26.4562C71.4539 26.4562 72.3929 27.2748 72.3929 29.5628C72.3929 31.1163 71.9548 32.6905 68.7206 32.6905H64.8394V26.4562H68.7832ZM68.5744 18.2908C71.3913 18.2908 71.767 19.6342 71.767 21.0827C71.767 22.9298 70.7861 23.8323 68.7622 23.8323H64.8186V18.2908H68.5744ZM62.6069 15.667C62.3355 15.667 62.127 15.8769 62.127 16.1498V34.7895C62.127 35.0625 62.3355 35.2723 62.6069 35.2723H68.637C72.9563 35.2723 75.335 33.2363 75.335 29.5419C75.335 27.5267 74.3751 25.8055 72.7477 24.9448C72.7477 24.9448 72.7059 24.9239 72.6641 24.903C72.7059 24.8819 72.7267 24.84 72.7267 24.84C73.9787 23.9164 74.6881 22.552 74.6881 21.0406C74.6881 19.0255 73.8744 15.625 68.4492 15.625H62.6069V15.667Z" fill="white"/>
<path fill-rule="evenodd" clip-rule="evenodd" d="M140.124 21.6705C140.103 21.6705 140.082 21.6916 140.082 21.7126V22.1324C140.082 22.1533 140.103 22.1744 140.124 22.1744H140.896V24.8193C140.896 24.8402 140.917 24.8612 140.938 24.8612H141.376C141.396 24.8612 141.417 24.8402 141.417 24.8193V22.1744H142.189C142.21 22.1744 142.231 22.1533 142.231 22.1324V21.7126C142.231 21.6916 142.21 21.6705 142.189 21.6705H140.124Z" fill="white"/>
<path fill-rule="evenodd" clip-rule="evenodd" d="M145.047 21.6705C145.026 21.6705 145.006 21.6705 145.006 21.6916C145.006 21.6916 144.213 23.5388 144.15 23.7277C144.067 23.5388 143.295 21.6916 143.295 21.6916C143.295 21.6705 143.274 21.6705 143.253 21.6705H142.731C142.71 21.6705 142.689 21.6916 142.689 21.7126V24.8193C142.689 24.8402 142.71 24.8612 142.731 24.8612H143.148C143.169 24.8612 143.169 24.8612 143.19 24.8402C143.19 24.8402 143.211 24.8193 143.211 24.7982C143.211 24.7982 143.19 22.993 143.19 22.6152C143.336 22.951 143.962 24.3994 143.962 24.3994C143.962 24.4204 143.983 24.4204 144.004 24.4204H144.338C144.359 24.4204 144.38 24.4204 144.38 24.3994C144.38 24.3994 145.006 22.951 145.152 22.6152C145.152 22.993 145.131 24.7982 145.131 24.7982C145.131 24.8193 145.131 24.8193 145.152 24.8402C145.173 24.8402 145.173 24.8612 145.193 24.8612H145.611C145.632 24.8612 145.652 24.8402 145.652 24.8193V21.7126C145.652 21.6916 145.632 21.6705 145.611 21.6705H145.047Z" fill="white"/>
</svg>
