<svg width="114" height="58" viewBox="0 0 114 58" fill="none" xmlns="http://www.w3.org/2000/svg">
<path d="M88.661 1L86.1432 15.2442H104.81L113 1H88.661Z" fill="white"/>
<path d="M15.1808 15.2442L12.6919 29.5174L10.1741 43.7616H24.3839L26.8728 29.5174L29.3907 15.2442H15.1808Z" fill="white"/>
<path d="M43.5716 15.2442L41.0827 29.5174L38.5649 43.7616H52.7747L57.7525 15.2442H43.5716Z" fill="white"/>
<path d="M83.6543 29.5174L86.1432 15.2442L71.9623 15.2442L69.4445 29.5174L68.6631 33.9942C67.708 39.4012 71.3256 43.7616 76.6796 43.7616H99.8031L107.993 29.5174H83.6543Z" fill="white"/>
<path d="M15.1808 15.2442L1 15.2442L9.19018 1H17.6987L15.1808 15.2442Z" fill="white"/>
<path d="M29.3907 15.2442H15.1808L17.6987 1H31.8796L29.3907 15.2442Z" fill="white"/>
<path d="M43.5716 15.2442H29.3907L31.8796 1H46.0895L43.5716 15.2442Z" fill="white"/>
<path d="M57.7525 15.2442H43.5716L46.0895 1H60.2702L57.7525 15.2442Z" fill="white"/>
<path d="M71.9623 15.2442H57.7525L60.2702 1H74.4511L71.9623 15.2442Z" fill="white"/>
<path d="M86.1432 15.2442L71.9623 15.2442L72.7437 10.7674C73.6987 5.38953 78.8212 1 84.2041 1H88.661L86.1432 15.2442Z" fill="white"/>
<path d="M42.1535 51.436H40.1855L40.2434 51.0291H44.6424L44.5845 51.436H42.5876L41.7483 57.0465H41.3142L42.1535 51.436ZM45.4238 52.657H45.8289L45.6264 53.907C46.0605 53.1221 46.8419 52.5407 47.6811 52.5988L47.5943 53.0639H47.5654C46.6103 53.0639 45.6553 53.8198 45.4238 55.2442L45.1633 57.0465H44.7581L45.4238 52.657ZM51.5592 55.3895L51.646 54.8953C51.2987 54.8081 50.8646 54.6919 50.2569 54.6919C49.3886 54.6919 48.8388 55.1279 48.723 55.7384C48.6362 56.3779 49.1571 56.7558 49.7938 56.7558C50.6331 56.7558 51.4434 56.2035 51.5592 55.3895ZM48.3178 55.7384C48.4336 54.8372 49.2729 54.3139 50.3437 54.3139C50.9225 54.3139 51.2987 54.4012 51.7039 54.5174L51.7328 54.3139C51.8486 53.4419 51.4145 52.9767 50.5463 52.9767C50.0543 52.9767 49.6202 53.1221 49.1861 53.3256L49.0992 52.9767C49.5912 52.7442 50.0543 52.5988 50.6331 52.5988C51.2119 52.5988 51.6171 52.7442 51.8775 53.0639C52.1091 53.3546 52.1959 53.7616 52.1091 54.3139L51.7039 57.0465H51.3277L51.4145 56.3198C51.0672 56.7267 50.4884 57.1337 49.707 57.1337C48.9256 57.1337 48.1731 56.6686 48.3178 55.7384ZM54.4243 52.657H54.8295L54.7137 53.4709C55.061 52.9477 55.6109 52.5407 56.3633 52.5407C57.4052 52.5407 57.8972 53.2965 57.7525 54.3721L57.3473 57.0465H56.9421L57.3473 54.4302C57.4631 53.5291 57.0868 52.9477 56.2476 52.9477C55.4372 52.9477 54.6848 53.5872 54.569 54.5174L54.1928 57.0465H53.7876L54.4243 52.657ZM59.1416 56.4942L59.431 56.1453C59.8362 56.5232 60.2992 56.7267 60.8491 56.7267C61.399 56.7267 61.891 56.407 61.9778 55.8837C62.0357 55.3605 61.5437 55.186 60.9938 55.0116C60.3571 54.8081 59.6336 54.5756 59.7494 53.7907C59.8651 53.0639 60.5018 52.5698 61.3122 52.5698C61.8041 52.5698 62.354 52.7442 62.7013 53.0639L62.4408 53.4128C62.0935 53.1221 61.6884 52.9767 61.2253 52.9767C60.6755 52.9767 60.2414 53.2965 60.1545 53.7326C60.0966 54.2267 60.6176 54.4302 61.1964 54.6046C61.8331 54.8081 62.4987 55.0698 62.383 55.8546C62.2672 56.6395 61.5437 57.1337 60.7623 57.1337C60.1545 57.1337 59.5178 56.8721 59.1416 56.4942ZM64.4088 55.9128L64.8429 53.0349H64.2351L64.293 52.657H64.9008L65.1323 51.2616H65.5375L65.306 52.657H66.7819L66.724 53.0349H65.2481L64.8429 55.8837C64.7271 56.4942 65.0455 56.7267 65.5375 56.7267C65.7401 56.7267 65.9137 56.6686 66.1742 56.5814L66.1163 56.9593C65.8848 57.0756 65.6822 57.1337 65.4217 57.1337C64.7561 57.1337 64.293 56.7558 64.4088 55.9128ZM71.3545 54.6337C71.4124 53.7616 71.0651 52.9477 70.1101 52.9477C69.2708 52.9477 68.5184 53.6744 68.3158 54.6337H71.3545ZM67.8527 54.8372C68.0553 53.5581 69.0393 52.5407 70.168 52.5407C71.3545 52.5407 71.9333 53.5581 71.7308 54.8372C71.7308 54.9244 71.7308 54.9535 71.7018 55.0116H68.2579C68.1711 56.1163 68.8078 56.7558 69.6181 56.7558C70.2837 56.7558 70.7757 56.436 71.1519 56.0581L71.4124 56.3198C70.8915 56.8139 70.3416 57.1337 69.5602 57.1337C68.4605 57.1337 67.6501 56.2326 67.8527 54.8372ZM74.2197 50.7674H74.6248L73.6698 57.0465H73.2646L74.2197 50.7674ZM79.4289 54.6337C79.4868 53.7616 79.1395 52.9477 78.1845 52.9477C77.3452 52.9477 76.5928 53.6744 76.3902 54.6337H79.4289ZM75.9271 54.8372C76.1297 53.5581 77.1137 52.5407 78.2424 52.5407C79.4289 52.5407 80.0078 53.5581 79.8052 54.8372C79.8052 54.9244 79.8052 54.9535 79.7762 55.0116H76.3323C76.2455 56.1163 76.8822 56.7558 77.6925 56.7558C78.3581 56.7558 78.8501 56.436 79.2264 56.0581L79.4868 56.3198C78.9659 56.8139 78.416 57.1337 77.6346 57.1337C76.5349 57.1337 75.7246 56.2326 75.9271 54.8372ZM81.339 54.8372C81.5127 53.5872 82.6124 52.5407 83.799 52.5407C84.5804 52.5407 85.0434 52.9186 85.3328 53.3546L85.0145 53.6744C84.7251 53.2674 84.3488 52.9477 83.7411 52.9477C82.815 52.9477 81.9178 53.7907 81.7731 54.8372C81.5995 55.9128 82.2362 56.7558 83.1912 56.7558C83.799 56.7558 84.291 56.407 84.6961 56L84.9566 56.2907C84.4357 56.7849 83.8858 57.1337 83.1044 57.1337C81.9178 57.1337 81.1364 56.1163 81.339 54.8372ZM90.3685 54.8372C90.5132 53.7907 89.8765 52.9477 88.9215 52.9477C87.9954 52.9477 87.0982 53.7907 86.9535 54.8372C86.7799 55.9128 87.4165 56.7558 88.3716 56.7558C89.2977 56.7558 90.1948 55.8837 90.3685 54.8372ZM86.5194 54.8372C86.693 53.6163 87.7638 52.5407 89.0083 52.5407C90.2238 52.5407 90.9762 53.5872 90.8026 54.8372C90.6 56.0872 89.5292 57.1337 88.2848 57.1337C87.0693 57.1337 86.3168 56.0872 86.5194 54.8372ZM92.9731 52.657H93.3783L93.2625 53.4419C93.6098 52.9767 94.0439 52.5407 94.7964 52.5407C95.5199 52.5407 95.8961 52.9767 96.0698 53.5C96.3881 53.0058 96.909 52.5407 97.6904 52.5407C98.7034 52.5407 99.1954 53.2674 99.0217 54.3721L98.6165 57.0465H98.2403L98.6165 54.4302C98.7612 53.5 98.385 52.9477 97.6036 52.9477C96.909 52.9477 96.2145 53.5 96.0698 54.4884L95.6936 57.0465H95.2884L95.6646 54.4012C95.8093 53.5 95.4331 52.9477 94.6806 52.9477C93.9282 52.9477 93.2336 53.6163 93.1178 54.5174L92.7416 57.0465H92.3364L92.9731 52.657Z" fill="white"/>
<path d="M88.661 1L86.1432 15.2442M88.661 1H84.2041C78.8212 1 73.6987 5.38953 72.7437 10.7674L71.9623 15.2442M88.661 1H113L104.81 15.2442H86.1432M86.1432 15.2442L83.6543 29.5174H107.993L99.8031 43.7616H76.6796C71.3256 43.7616 67.708 39.4012 68.6631 33.9942L69.4445 29.5174L71.9623 15.2442M86.1432 15.2442L71.9623 15.2442M15.1808 15.2442L12.6919 29.5174L10.1741 43.7616H24.3839L26.8728 29.5174L29.3907 15.2442M15.1808 15.2442H29.3907M15.1808 15.2442L1 15.2442L9.19018 1H17.6987M15.1808 15.2442L17.6987 1M29.3907 15.2442L31.8796 1M29.3907 15.2442H43.5716M43.5716 15.2442L41.0827 29.5174L38.5649 43.7616H52.7747L57.7525 15.2442M43.5716 15.2442H57.7525M43.5716 15.2442L46.0895 1M57.7525 15.2442L60.2702 1M57.7525 15.2442H71.9623M71.9623 15.2442L74.4511 1H60.2702M17.6987 1H31.8796M31.8796 1H46.0895M46.0895 1H60.2702M42.1535 51.436H40.1855L40.2434 51.0291H44.6424L44.5845 51.436H42.5876L41.7483 57.0465H41.3142L42.1535 51.436ZM45.4238 52.657H45.8289L45.6264 53.907C46.0605 53.1221 46.8419 52.5407 47.6811 52.5988L47.5943 53.0639H47.5654C46.6103 53.0639 45.6553 53.8198 45.4238 55.2442L45.1633 57.0465H44.7581L45.4238 52.657ZM51.5592 55.3895L51.646 54.8953C51.2987 54.8081 50.8646 54.6919 50.2569 54.6919C49.3886 54.6919 48.8388 55.1279 48.723 55.7384C48.6362 56.3779 49.1571 56.7558 49.7938 56.7558C50.6331 56.7558 51.4434 56.2035 51.5592 55.3895ZM48.3178 55.7384C48.4336 54.8372 49.2729 54.3139 50.3437 54.3139C50.9225 54.3139 51.2987 54.4012 51.7039 54.5174L51.7328 54.3139C51.8486 53.4419 51.4145 52.9767 50.5463 52.9767C50.0543 52.9767 49.6202 53.1221 49.1861 53.3256L49.0992 52.9767C49.5912 52.7442 50.0543 52.5988 50.6331 52.5988C51.2119 52.5988 51.6171 52.7442 51.8775 53.0639C52.1091 53.3546 52.1959 53.7616 52.1091 54.3139L51.7039 57.0465H51.3277L51.4145 56.3198C51.0672 56.7267 50.4884 57.1337 49.707 57.1337C48.9256 57.1337 48.1731 56.6686 48.3178 55.7384ZM54.4243 52.657H54.8295L54.7137 53.4709C55.061 52.9477 55.6109 52.5407 56.3633 52.5407C57.4052 52.5407 57.8972 53.2965 57.7525 54.3721L57.3473 57.0465H56.9421L57.3473 54.4302C57.4631 53.5291 57.0868 52.9477 56.2476 52.9477C55.4372 52.9477 54.6848 53.5872 54.569 54.5174L54.1928 57.0465H53.7876L54.4243 52.657ZM59.1416 56.4942L59.431 56.1453C59.8362 56.5232 60.2992 56.7267 60.8491 56.7267C61.399 56.7267 61.891 56.407 61.9778 55.8837C62.0357 55.3605 61.5437 55.186 60.9938 55.0116C60.3571 54.8081 59.6336 54.5756 59.7494 53.7907C59.8651 53.0639 60.5018 52.5698 61.3122 52.5698C61.8041 52.5698 62.354 52.7442 62.7013 53.0639L62.4408 53.4128C62.0935 53.1221 61.6884 52.9767 61.2253 52.9767C60.6755 52.9767 60.2414 53.2965 60.1545 53.7326C60.0966 54.2267 60.6176 54.4302 61.1964 54.6046C61.8331 54.8081 62.4987 55.0698 62.383 55.8546C62.2672 56.6395 61.5437 57.1337 60.7623 57.1337C60.1545 57.1337 59.5178 56.8721 59.1416 56.4942ZM64.4088 55.9128L64.8429 53.0349H64.2351L64.293 52.657H64.9008L65.1323 51.2616H65.5375L65.306 52.657H66.7819L66.724 53.0349H65.2481L64.8429 55.8837C64.7271 56.4942 65.0455 56.7267 65.5375 56.7267C65.7401 56.7267 65.9137 56.6686 66.1742 56.5814L66.1163 56.9593C65.8848 57.0756 65.6822 57.1337 65.4217 57.1337C64.7561 57.1337 64.293 56.7558 64.4088 55.9128ZM71.3545 54.6337C71.4124 53.7616 71.0651 52.9477 70.1101 52.9477C69.2708 52.9477 68.5184 53.6744 68.3158 54.6337H71.3545ZM67.8527 54.8372C68.0553 53.5581 69.0393 52.5407 70.168 52.5407C71.3545 52.5407 71.9333 53.5581 71.7308 54.8372C71.7308 54.9244 71.7308 54.9535 71.7018 55.0116H68.2579C68.1711 56.1163 68.8078 56.7558 69.6181 56.7558C70.2837 56.7558 70.7757 56.436 71.1519 56.0581L71.4124 56.3198C70.8915 56.8139 70.3416 57.1337 69.5602 57.1337C68.4605 57.1337 67.6501 56.2326 67.8527 54.8372ZM74.2197 50.7674H74.6248L73.6698 57.0465H73.2646L74.2197 50.7674ZM79.4289 54.6337C79.4868 53.7616 79.1395 52.9477 78.1845 52.9477C77.3452 52.9477 76.5928 53.6744 76.3902 54.6337H79.4289ZM75.9271 54.8372C76.1297 53.5581 77.1137 52.5407 78.2424 52.5407C79.4289 52.5407 80.0078 53.5581 79.8052 54.8372C79.8052 54.9244 79.8052 54.9535 79.7762 55.0116H76.3323C76.2455 56.1163 76.8822 56.7558 77.6925 56.7558C78.3581 56.7558 78.8501 56.436 79.2264 56.0581L79.4868 56.3198C78.9659 56.8139 78.416 57.1337 77.6346 57.1337C76.5349 57.1337 75.7246 56.2326 75.9271 54.8372ZM81.339 54.8372C81.5127 53.5872 82.6124 52.5407 83.799 52.5407C84.5804 52.5407 85.0434 52.9186 85.3328 53.3546L85.0145 53.6744C84.7251 53.2674 84.3488 52.9477 83.7411 52.9477C82.815 52.9477 81.9178 53.7907 81.7731 54.8372C81.5995 55.9128 82.2362 56.7558 83.1912 56.7558C83.799 56.7558 84.291 56.407 84.6961 56L84.9566 56.2907C84.4357 56.7849 83.8858 57.1337 83.1044 57.1337C81.9178 57.1337 81.1364 56.1163 81.339 54.8372ZM90.3685 54.8372C90.5132 53.7907 89.8765 52.9477 88.9215 52.9477C87.9954 52.9477 87.0982 53.7907 86.9535 54.8372C86.7799 55.9128 87.4165 56.7558 88.3716 56.7558C89.2977 56.7558 90.1948 55.8837 90.3685 54.8372ZM86.5194 54.8372C86.693 53.6163 87.7638 52.5407 89.0083 52.5407C90.2238 52.5407 90.9762 53.5872 90.8026 54.8372C90.6 56.0872 89.5292 57.1337 88.2848 57.1337C87.0693 57.1337 86.3168 56.0872 86.5194 54.8372ZM92.9731 52.657H93.3783L93.2625 53.4419C93.6098 52.9767 94.0439 52.5407 94.7964 52.5407C95.5199 52.5407 95.8961 52.9767 96.0698 53.5C96.3881 53.0058 96.909 52.5407 97.6904 52.5407C98.7034 52.5407 99.1954 53.2674 99.0217 54.3721L98.6165 57.0465H98.2403L98.6165 54.4302C98.7612 53.5 98.385 52.9477 97.6036 52.9477C96.909 52.9477 96.2145 53.5 96.0698 54.4884L95.6936 57.0465H95.2884L95.6646 54.4012C95.8093 53.5 95.4331 52.9477 94.6806 52.9477C93.9282 52.9477 93.2336 53.6163 93.1178 54.5174L92.7416 57.0465H92.3364L92.9731 52.657Z" stroke="black" stroke-width="0.375005"/>
</svg>
