<svg width="159" height="40" viewBox="0 0 159 40" fill="none" xmlns="http://www.w3.org/2000/svg">
<path d="M35.3333 0L34.1843 6.63462H11.3948L6.7028 33.1731H0L5.84101 0H35.3333Z" fill="white"/>
<path d="M67.3632 10.1443H61.3307L60.8041 13.2212H66.693L66.0706 16.7308H60.1817L59.1763 22.5481H55.5376L58.3623 6.63464H67.9856L67.3632 10.1443Z" fill="white"/>
<path d="M81.7741 14.6154C81.5347 16.0097 80.8644 17.1635 79.8111 18.0289C78.7578 18.8943 77.5609 19.327 76.2203 19.327C74.9276 19.327 73.9222 18.8943 73.2519 18.0289C72.5817 17.1635 72.3423 16.0097 72.5817 14.6154C72.8211 13.2212 73.4435 12.0673 74.4968 11.202C75.5022 10.3366 76.6991 9.90388 77.9918 9.90388C79.2845 9.90388 80.3378 10.3366 81.0559 11.202C81.7741 12.0673 82.0135 13.2212 81.7741 14.6154ZM83.9764 8.84619C82.6359 7.1635 80.8165 6.34619 78.5663 6.34619C76.1246 6.34619 74.018 7.11542 72.2465 8.60581C70.4751 10.0962 69.4218 12.0193 68.9909 14.4231C68.56 16.7789 69.0388 18.75 70.3793 20.4327C71.7199 22.1154 73.5392 22.9327 75.8373 22.9327C78.279 22.9327 80.3856 22.1635 82.1092 20.6731C83.8807 19.1827 84.934 17.2597 85.3649 14.8558C85.7958 12.5 85.317 10.4808 83.9764 8.84619Z" fill="white"/>
<path d="M96.4245 12.1154C96.3288 12.6923 96.0415 13.1731 95.6585 13.5577C95.2755 13.9423 94.7967 14.1346 94.2222 14.1346H91.4932L92.2113 10.0481H94.701C95.3234 10.0481 95.7543 10.2404 96.0894 10.625C96.4245 11.0096 96.5203 11.4904 96.4245 12.1154ZM99.0099 8.36541C98.0524 7.21157 96.8076 6.63464 95.3234 6.63464H89.1951L86.4182 22.5481H90.0569L90.9665 17.3077H92.9295L94.9882 22.5481H98.6748L96.3288 16.827C97.2863 16.4423 98.1002 15.8654 98.7705 15.0962C99.4408 14.327 99.8238 13.4135 100.015 12.3558C100.303 10.8173 99.9674 9.51926 99.0099 8.36541Z" fill="white"/>
<path d="M114.857 6.63464L114.235 10.1443H110.165L108.011 22.5481H104.372L106.527 10.1443H102.457L103.079 6.63464H114.857Z" fill="white"/>
<path d="M121.656 22.8846C119.789 22.8846 118.304 22.3558 117.299 21.3462C116.294 20.3366 115.911 19.0385 116.198 17.4039L118.065 6.63464H121.656L119.836 17.0673C119.597 18.5577 120.267 19.2789 121.943 19.2789C123.571 19.2789 124.528 18.5577 124.816 17.0673L126.635 6.63464H130.226L128.311 17.4039C127.976 19.2308 127.257 20.577 126.06 21.4904C124.864 22.4039 123.379 22.8846 121.656 22.8846Z" fill="white"/>
<path d="M130.705 22.5481L133.481 6.63464H136.21L140.759 15.577L142.339 6.63464H145.93L143.153 22.5481H140.472L135.923 13.6058L134.343 22.5481H130.705Z" fill="white"/>
<path d="M158.378 10.1443H152.153L151.675 12.7885H157.372L156.75 16.202H151.1L150.621 19.0385H156.845L156.223 22.5481H146.36L149.137 6.63464H159L158.378 10.1443Z" fill="white"/>
<path d="M54.3885 29.2307H55.7769L53.9097 39.8076H52.5212L54.3885 29.2307Z" fill="white"/>
<path d="M57.2131 39.8076L59.0803 29.2307H60.1336L64.2511 37.1634L65.6395 29.2307H67.028L65.1607 39.8076H64.1074L59.99 31.8749L58.6016 39.8076H57.2131Z" fill="white"/>
<path d="M71.0496 39.8076L69.1824 29.2307H70.5708L72.055 38.0769L76.6512 29.2307H78.2311L72.6295 39.8076H71.0496Z" fill="white"/>
<path d="M86.4183 30.5288H81.5827L81.0081 33.798H85.4607L85.2213 35.0961H80.7688L80.1942 38.4615H85.0777L84.8383 39.8076H78.5664L80.3857 29.2307H86.6098L86.4183 30.5288Z" fill="white"/>
<path d="M91.0623 40C90.0569 40 89.243 39.7596 88.5727 39.3269C87.9024 38.8461 87.5194 38.2211 87.28 37.4038L88.5248 36.7307C88.8121 37.9807 89.6739 38.6057 91.1102 38.6057C91.7805 38.6057 92.355 38.4615 92.7859 38.173C93.2168 37.8846 93.5041 37.5 93.5998 37.0673C93.6477 36.7788 93.6477 36.5384 93.5519 36.298C93.4562 36.0576 93.3125 35.9134 93.0253 35.7211C92.7859 35.5769 92.5465 35.4326 92.3071 35.3365C92.0677 35.2403 91.7805 35.1442 91.3496 35C90.9187 34.8557 90.5357 34.7115 90.2484 34.5192C89.9611 34.375 89.626 34.1346 89.3387 33.8942C89.0515 33.6538 88.8121 33.3173 88.7163 32.9326C88.6206 32.548 88.5727 32.1153 88.6685 31.6346C88.86 30.7692 89.2909 30.0961 89.9611 29.6153C90.6793 29.1346 91.4453 28.9423 92.3071 28.9423C93.1689 28.9423 93.8871 29.1346 94.4616 29.5673C95.0361 30 95.4191 30.5288 95.6585 31.25L94.4137 31.875C94.0307 30.8173 93.2647 30.2884 92.1635 30.2884C91.6368 30.2884 91.1581 30.4326 90.7751 30.673C90.3442 30.9134 90.1048 31.298 90.009 31.7307C89.9611 31.9711 89.9611 32.1634 90.009 32.3557C90.0569 32.548 90.1527 32.6923 90.2484 32.8365C90.3442 32.9807 90.5357 33.0769 90.7751 33.2211C91.0144 33.3653 91.2059 33.4615 91.3975 33.5096C91.589 33.6057 91.8284 33.7019 92.1156 33.798C92.4986 33.9423 92.7859 34.0384 92.9774 34.1346C93.1689 34.2307 93.4562 34.375 93.7913 34.5673C94.1265 34.7596 94.3658 34.9519 94.5095 35.1923C94.6531 35.3846 94.7967 35.673 94.8925 36.0096C94.9882 36.3461 94.9882 36.7307 94.8925 37.1634C94.701 38.0288 94.2701 38.75 93.5519 39.1826C92.9295 39.7596 92.0677 40 91.0623 40Z" fill="white"/>
<path d="M105.378 29.2307L105.186 30.5288H102.074L100.446 39.8076H99.0579L100.686 30.5288H97.5737L97.8131 29.2307H105.378Z" fill="white"/>
<path d="M33.0352 13.2693L28.3433 39.8078H35.0939L39.738 13.2693H33.0352Z" fill="white"/>
<path d="M33.0352 13.2693L34.1843 6.63462H11.3948L6.7028 33.1731H13.4057L14.6026 26.5385H23.9865L25.1356 19.9039H15.7517L16.9007 13.2693H33.0352Z" fill="white"/>
<path d="M16.9007 13.2693H33.0352L29.5401 33.1731H13.4057L14.6026 26.5385H23.9865L25.1356 19.9039H15.7517L16.9007 13.2693Z" fill="white"/>
<path d="M34.1843 6.63462L33.0352 13.2693H39.738L35.0939 39.8078L41.7967 39.8077L47.5898 6.63464L34.1843 6.63462Z" fill="white"/>
<path d="M13.4057 33.1731H29.5401L28.3433 39.8078L12.2566 39.8077L13.4057 33.1731Z" fill="white"/>
</svg>
